<?xml version="1.0" standalone="no"?>
<!DOCTYPE svg PUBLIC "-//W3C//DTD SVG 20010904//EN"
 "http://www.w3.org/TR/2001/REC-SVG-20010904/DTD/svg10.dtd">
<svg version="1.0" xmlns="http://www.w3.org/2000/svg"
 width="661.000000pt" height="661.000000pt" viewBox="0 0 661.000000 661.000000"
 preserveAspectRatio="xMidYMid meet">
<metadata>
Created by potrace 1.14, written by Peter Selinger 2001-2017
</metadata>
<g transform="translate(0.000000,661.000000) scale(0.100000,-0.100000)"
fill="#000000" stroke="none">
<path d="M3075 6324 c-16 -2 -55 -8 -85 -14 -72 -12 -94 -16 -230 -35 -63 -9
-128 -22 -145 -30 -26 -12 -146 -38 -225 -49 -14 -2 -104 -34 -200 -71 -189
-73 -387 -169 -434 -210 -16 -14 -34 -25 -41 -25 -18 0 -260 -166 -343 -234
-40 -34 -87 -71 -105 -84 -40 -29 -147 -133 -144 -141 1 -3 -1 -6 -5 -6 -29 0
-254 -267 -242 -287 4 -6 3 -8 -3 -5 -21 13 -183 -225 -284 -418 -66 -127
-137 -283 -142 -314 -2 -9 -13 -38 -25 -65 -12 -27 -38 -99 -57 -160 -167
-540 -170 -1207 -10 -1726 76 -243 128 -369 254 -615 50 -97 91 -184 91 -193
0 -9 -16 -55 -35 -102 -37 -91 -44 -140 -21 -140 8 0 21 -8 28 -18 7 -11 23
-24 35 -31 22 -11 22 -10 12 12 -8 18 -8 30 0 46 7 12 9 26 6 31 -10 16 40
100 60 100 8 0 -3 -54 -18 -90 -12 -29 -16 -110 -5 -104 9 6 20 -36 18 -62 -1
-11 -2 -24 -1 -31 1 -12 165 -183 175 -183 3 0 6 7 6 15 0 8 -4 15 -10 15 -17
0 -11 20 7 27 19 7 33 22 33 36 0 5 -6 5 -13 1 -6 -5 -4 3 5 16 32 45 71 124
83 170 11 42 10 46 -6 46 -10 0 -17 -3 -17 -6 2 -24 -4 -40 -14 -37 -8 1 -12
-7 -10 -23 2 -18 0 -21 -6 -11 -12 16 -21 3 -24 -34 -2 -20 -9 -28 -31 -32
-35 -7 -30 -26 9 -33 l29 -6 -34 -7 c-18 -4 -38 -4 -45 0 -6 4 -20 6 -31 4
-11 -2 -17 0 -13 4 4 4 -4 19 -18 33 -19 21 -24 38 -25 82 -1 30 -2 62 -3 70
-1 8 3 24 9 35 5 11 10 27 10 35 0 8 9 16 20 19 11 2 31 12 44 22 13 11 33 19
44 19 16 0 17 3 7 15 -10 12 -6 20 21 47 34 35 55 37 76 10 8 -11 12 -12 13
-4 0 17 20 15 20 -3 0 -8 5 -15 10 -15 7 0 7 8 -1 22 -15 29 -30 39 -47 33
-22 -8 -3 35 29 66 17 16 25 29 19 29 -5 0 -10 7 -10 15 0 9 6 12 15 9 8 -4
15 -1 15 5 0 6 -4 11 -10 11 -5 0 -7 8 -4 18 4 10 3 13 -3 6 -12 -15 -43 -25
-43 -14 0 6 -4 10 -10 10 -5 0 -10 -10 -10 -22 0 -39 -42 -117 -62 -115 -13 1
-16 7 -11 27 3 14 10 33 15 44 7 13 6 21 -2 26 -8 5 -11 19 -7 36 6 32 -10 74
-30 74 -7 0 -13 5 -13 11 0 6 8 8 18 5 9 -3 24 -1 32 4 13 8 11 11 -7 16 -14
4 -20 11 -16 20 5 13 8 13 23 -1 9 -8 20 -12 23 -8 4 3 7 -1 7 -10 0 -10 5
-17 11 -17 5 0 8 -4 5 -8 -3 -5 5 -8 17 -7 25 2 67 -14 67 -26 0 -5 7 -6 16
-2 13 5 15 2 9 -15 -9 -29 11 -28 22 1 8 24 10 33 12 60 0 9 5 17 11 17 13 0
50 37 50 50 0 5 7 7 15 4 8 -4 15 -12 15 -19 0 -8 7 -20 15 -29 9 -8 14 -19
13 -23 -2 -4 13 -16 32 -25 23 -12 28 -18 16 -18 -15 0 -17 -5 -11 -23 15 -46
7 -137 -14 -153 -8 -6 -11 -16 -7 -23 4 -6 0 -23 -9 -37 -12 -19 -18 -53 -20
-127 -1 -56 -4 -102 -5 -102 -1 0 -2 -33 -3 -73 -2 -57 1 -71 12 -67 9 4 11 0
6 -12 -6 -16 -26 -146 -28 -180 0 -7 -7 -13 -16 -13 -12 0 -13 -2 -3 -9 10 -6
10 -10 -3 -21 -18 -15 -20 -31 -2 -24 23 8 55 -80 34 -94 -44 -28 -43 -86 1
-103 19 -7 29 -6 43 7 21 19 40 11 21 -8 -7 -7 -12 -19 -12 -27 0 -10 7 -8 25
9 14 13 25 18 25 12 0 -7 -5 -12 -11 -12 -6 0 -8 -9 -4 -22 5 -19 4 -20 -5 -8
-10 13 -11 12 -6 -3 3 -10 6 -21 6 -23 0 -3 4 -3 9 1 5 3 12 1 16 -5 4 -7 11
-6 20 2 42 38 64 50 51 29 -4 -5 0 -11 6 -14 10 -3 10 -8 -1 -18 -10 -11 -15
-11 -18 -1 -7 20 -23 14 -23 -9 0 -15 4 -19 16 -15 10 4 18 -1 21 -13 3 -11
16 -27 29 -36 13 -8 36 -23 51 -32 l28 -18 -29 37 c-20 28 -27 46 -24 67 4 27
2 29 -15 19 -11 -5 -17 -6 -14 -1 3 5 -1 23 -9 39 -8 16 -16 51 -18 78 -1 29
-7 51 -15 54 -8 3 -6 9 7 18 11 8 19 20 18 26 -3 14 -16 48 -24 62 -3 5 1 6 8
1 16 -10 4 33 -17 56 -14 17 -15 86 -1 95 5 3 6 10 2 15 -3 6 -16 3 -31 -7
-25 -15 -26 -15 -20 1 4 9 7 23 7 30 0 8 8 21 17 31 9 9 19 26 20 37 2 12 8
24 14 27 13 9 0 40 -17 40 -18 0 -18 15 -1 32 8 7 16 19 18 26 3 9 17 6 52
-11 54 -28 71 -19 31 18 -20 19 -30 22 -45 15 -11 -6 -20 -6 -24 -1 -3 5 4 12
15 16 11 4 18 10 15 15 -3 5 -1 10 4 12 6 2 6 22 0 53 -6 28 -12 57 -13 65 -2
8 -1 20 2 25 4 6 7 31 8 58 0 26 4 50 8 54 3 3 6 14 6 24 0 12 -6 16 -21 12
-19 -5 -20 -3 -16 48 7 78 22 113 48 106 15 -4 19 -1 14 12 -4 13 5 19 41 27
43 10 47 9 61 -13 21 -31 11 -58 -16 -43 -16 8 -22 6 -31 -10 -8 -15 -7 -19 2
-16 54 17 67 16 70 -6 3 -21 5 -20 22 10 9 19 15 40 12 48 -3 8 -1 14 4 14 6
0 10 -7 10 -15 0 -8 9 -15 19 -15 24 0 86 -54 77 -68 -3 -5 5 -9 18 -9 22 0
23 2 15 29 -6 23 -5 29 5 25 8 -3 19 0 25 6 10 10 16 -1 12 -25 0 -5 5 -8 13
-8 8 0 17 -12 21 -27 5 -21 8 -24 15 -13 11 18 23 7 26 -25 2 -17 -1 -23 -9
-19 -7 3 -3 -2 7 -10 32 -26 51 -15 24 12 -9 9 -9 15 0 24 17 17 15 31 -3 25
-8 -4 -17 -2 -20 2 -3 5 2 12 11 15 8 3 12 10 9 16 -3 5 -1 10 4 10 6 0 11 -6
11 -13 0 -7 9 -23 20 -35 11 -12 20 -25 20 -30 0 -5 7 -15 15 -22 8 -7 12 -16
9 -21 -3 -5 0 -9 5 -9 6 0 11 4 11 8 0 4 14 13 30 19 29 11 30 10 25 -9 -4
-11 -4 -34 -1 -52 8 -40 30 -42 91 -9 48 25 71 29 108 20 24 -7 27 -10 17 -22
-7 -8 -10 -16 -6 -16 3 -1 10 -2 15 -3 5 0 13 -5 18 -10 5 -5 3 -6 -4 -2 -7 4
-13 2 -13 -3 0 -6 12 -11 26 -11 14 0 23 -4 19 -10 -9 -14 9 -12 24 3 10 10
11 8 5 -8 -4 -11 -13 -28 -20 -39 -7 -11 -10 -27 -5 -40 4 -11 7 -39 7 -61 -1
-29 5 -44 19 -55 27 -21 60 -29 76 -19 8 5 17 3 22 -4 5 -7 6 -3 2 11 -5 16
-2 22 8 22 9 0 17 -5 19 -11 2 -5 11 -7 21 -4 9 4 14 11 11 16 -3 5 2 9 10 9
9 0 16 -7 16 -16 0 -9 5 -12 12 -8 7 5 8 3 4 -5 -5 -7 -15 -10 -23 -7 -8 4
-11 1 -8 -5 4 -6 14 -8 22 -5 11 4 13 2 9 -9 -3 -10 1 -15 14 -15 26 0 34 17
13 29 -10 5 -15 13 -10 17 4 4 16 -1 27 -11 18 -16 20 -16 26 -2 3 9 4 22 2
29 -3 7 1 19 9 26 7 7 13 22 13 33 0 10 4 19 9 19 5 0 11 10 14 23 4 12 17 37
31 55 l24 33 16 -23 c20 -28 20 -42 1 -34 -17 6 -21 -9 -4 -19 6 -4 8 -13 5
-20 -2 -7 2 -16 11 -19 18 -7 35 2 28 15 -4 5 0 10 7 10 7 1 20 2 28 3 9 0 14
9 12 22 -2 13 4 24 15 28 14 6 16 5 6 -5 -19 -19 -16 -29 11 -29 13 0 26 -7
30 -15 3 -8 12 -15 20 -15 8 0 20 -13 28 -30 14 -33 26 -38 34 -15 4 8 10 15
14 15 12 0 18 -48 8 -58 -6 -6 -5 -13 3 -17 8 -5 10 -4 5 3 -4 7 -1 12 9 12 9
0 14 4 10 9 -7 12 29 33 39 24 3 -3 6 5 6 20 0 14 5 29 10 32 6 3 10 -3 10
-14 0 -10 4 -21 9 -23 6 -2 6 -17 1 -38 -4 -19 -8 -29 -9 -22 -1 7 -6 10 -12
7 -6 -5 -4 -12 8 -20 10 -7 21 -11 25 -9 11 7 28 -33 22 -51 -6 -13 -8 -14
-15 -3 -7 10 -9 10 -9 -2 1 -8 7 -24 15 -34 8 -10 12 -23 8 -29 -3 -6 -1 -7 5
-3 7 4 22 -2 34 -13 12 -12 27 -21 32 -21 6 0 4 -5 -4 -10 -8 -5 -10 -10 -5
-10 13 0 37 16 36 24 -3 20 1 24 23 22 19 -2 28 5 43 33 19 36 17 65 -9 115
-12 22 -8 26 67 71 40 24 61 32 65 24 6 -8 9 -8 14 0 4 6 12 9 17 5 6 -3 6
-11 1 -17 -16 -23 4 -203 25 -211 11 -5 12 2 7 32 -11 53 -11 85 -2 98 9 13 0
44 -12 44 -5 0 -6 9 -3 20 3 11 8 20 12 20 10 0 54 -32 73 -53 27 -30 53 -18
52 25 -1 20 -5 44 -9 55 -5 10 -9 21 -9 25 -1 4 -10 13 -20 21 -17 12 -17 14
-2 20 9 4 16 14 16 22 0 12 6 15 20 10 15 -5 21 0 27 22 4 15 6 34 4 42 -1 7
2 10 8 7 6 -4 20 -2 31 4 22 12 27 1 8 -19 -11 -10 -8 -10 15 -2 34 13 37 13
36 3 -3 -19 2 -33 11 -27 6 3 10 1 10 -6 0 -10 3 -10 12 -1 9 9 17 7 35 -10
13 -12 23 -30 23 -40 0 -20 26 -25 34 -5 3 8 9 6 20 -7 20 -24 31 -15 17 12
-25 46 0 112 29 77 7 -8 17 -15 23 -15 18 0 46 31 40 46 -4 10 3 14 20 14 14
0 28 -6 30 -12 3 -8 6 -6 6 5 1 9 7 17 15 17 9 0 14 -9 13 -24 -1 -14 3 -24 8
-23 6 1 10 20 11 42 0 22 1 46 2 53 3 17 22 15 22 -2 0 -8 4 -17 8 -20 4 -2 9
14 10 37 2 46 37 126 45 105 4 -9 10 -7 22 7 16 20 17 20 46 -13 16 -18 29
-27 29 -22 0 6 4 9 9 6 9 -6 12 -56 3 -56 -2 0 -11 8 -18 18 -11 14 -13 15
-14 2 0 -9 5 -21 10 -26 13 -13 -7 -77 -21 -68 -5 3 -9 0 -9 -5 0 -16 16 -13
34 5 15 14 16 14 16 -5 0 -11 -7 -24 -16 -29 -15 -8 -14 -11 6 -25 13 -9 17
-17 11 -22 -6 -3 -8 -11 -5 -17 8 -12 26 16 31 46 5 30 35 58 55 53 10 -3 16
-1 13 3 -8 12 42 43 55 35 5 -3 10 -1 10 5 0 6 5 8 12 4 8 -5 9 -2 5 10 -4 11
-3 15 4 11 14 -10 79 37 76 55 -1 8 6 16 16 18 11 2 36 21 58 43 40 40 66 51
55 24 -3 -8 -1 -15 4 -15 6 0 10 4 10 9 0 5 6 11 13 14 7 3 13 -6 14 -25 2
-25 -1 -28 -17 -23 -22 7 -48 -4 -33 -14 13 -8 26 -61 14 -61 -8 0 -14 -25
-27 -105 -4 -28 -4 -29 11 -11 20 27 20 -2 -1 -29 -14 -19 -15 -19 -20 3 -8
29 -21 28 -26 -3 -3 -13 -1 -22 3 -19 5 3 9 -4 9 -15 0 -30 23 -111 31 -111 4
0 5 9 2 20 -4 14 0 20 11 20 9 0 16 7 16 16 0 8 -4 13 -9 10 -5 -3 -14 8 -20
25 -9 26 -8 29 3 20 7 -6 15 -8 18 -6 3 3 13 -6 22 -20 9 -14 14 -25 11 -25
-4 0 1 -7 9 -16 9 -8 19 -27 22 -42 12 -55 28 -81 41 -70 10 8 10 14 -2 31
-19 28 -19 41 1 33 10 -4 14 -2 11 6 -2 7 -10 12 -16 11 -6 -2 -11 0 -12 5 0
4 -3 38 -5 77 -3 38 -9 74 -14 80 -13 16 0 65 19 65 11 0 7 6 -11 18 -27 16
-39 52 -18 52 6 0 10 -8 10 -19 0 -12 11 -21 32 -27 21 -6 37 -21 51 -47 11
-22 26 -41 33 -44 8 -3 14 -13 14 -23 0 -11 5 -22 10 -25 6 -3 10 2 10 12 0
15 2 16 10 3 13 -20 13 -33 0 -25 -15 9 -29 -36 -19 -63 13 -35 11 -46 -6 -32
-27 22 -38 -3 -15 -32 21 -27 26 -43 11 -34 -5 3 -14 0 -20 -8 -9 -11 -7 -12
12 -9 26 5 75 -31 57 -42 -8 -5 -6 -14 4 -31 9 -13 16 -37 16 -54 0 -29 -1
-30 -16 -15 -9 9 -23 14 -30 11 -8 -3 -18 3 -24 14 -9 17 -7 18 22 9 18 -5 34
-9 35 -9 1 0 -5 12 -13 28 -7 15 -14 33 -14 40 0 6 -4 12 -10 12 -5 0 -10 -7
-10 -15 0 -21 -36 -19 -52 3 -14 20 -43 34 -51 25 -3 -3 3 -22 15 -44 21 -40
24 -130 5 -156 -6 -8 -6 -13 1 -13 6 0 13 -13 17 -30 4 -16 11 -32 16 -35 5
-4 9 -15 9 -26 0 -10 5 -28 10 -39 6 -11 15 -29 20 -41 6 -11 8 -29 5 -40 -4
-11 -2 -25 3 -32 5 -7 13 -36 17 -65 8 -63 25 -100 43 -94 17 5 15 22 -4 22
-8 0 -12 5 -9 10 4 6 1 18 -6 26 -9 11 -9 18 -1 26 16 16 15 64 -2 80 -11 11
-9 17 14 40 26 24 27 28 13 48 -8 11 -12 28 -9 37 4 8 2 21 -2 27 -5 6 -12 19
-16 30 -5 14 -2 17 9 12 9 -3 15 0 15 9 0 8 -4 15 -9 15 -5 0 -13 9 -16 20 -9
29 -27 25 -19 -5 7 -30 -2 -31 -36 -5 l-25 19 25 10 c14 5 19 10 12 10 -15 1
14 51 30 51 12 0 39 -26 37 -37 -1 -4 0 -10 1 -13 1 -3 3 -23 4 -46 2 -22 6
-46 10 -52 4 -7 5 -16 1 -21 -3 -5 -1 -12 5 -16 5 -3 10 -20 9 -38 0 -45 7
-102 15 -116 4 -6 9 -41 10 -78 2 -38 7 -76 11 -85 3 -9 2 -25 -4 -37 -14 -25
-14 -34 -1 -26 15 9 12 -4 -4 -21 -11 -11 -16 -11 -20 -1 -3 6 -5 -2 -3 -20 2
-18 0 -30 -5 -27 -7 5 -12 -24 -9 -52 1 -6 -10 -23 -24 -38 -14 -15 -25 -32
-25 -38 0 -5 9 0 21 13 14 17 19 19 15 7 -4 -15 -1 -16 20 -7 14 5 30 7 35 3
5 -3 8 0 7 6 -2 7 11 17 28 24 16 6 43 23 60 38 16 16 32 28 36 28 10 0 27 94
19 105 -8 10 -19 57 -25 105 -2 14 -7 46 -11 73 -5 31 -3 52 4 61 9 11 7 15
-7 19 -20 5 -33 54 -53 195 -4 35 -11 68 -15 74 -4 6 -9 43 -11 82 -2 39 -13
101 -23 137 -11 36 -20 75 -20 86 0 10 -5 24 -12 31 -7 7 -9 12 -5 12 20 0 58
-57 115 -169 34 -69 62 -131 62 -138 0 -8 7 -16 15 -19 8 -4 15 -12 15 -20 0
-8 4 -13 9 -11 9 2 75 -73 93 -107 6 -12 14 -23 17 -26 6 -5 22 -38 82 -165
18 -38 34 -72 35 -73 1 -2 28 21 58 51 l56 55 -56 99 c-72 124 -73 126 -90
112 -7 -6 -18 -8 -23 -4 -14 8 -3 -23 17 -50 13 -18 14 -18 8 -1 -6 16 -4 17
9 6 9 -7 13 -20 10 -28 -3 -8 4 -24 15 -34 21 -19 29 -85 9 -73 -6 4 -13 -2
-16 -14 -3 -12 -9 -21 -14 -21 -11 0 -20 16 -12 23 3 4 7 21 8 39 l2 33 -13
-30 c-7 -16 -13 -24 -14 -16 0 8 -10 25 -22 38 -22 24 -20 41 4 27 22 -14 37
-13 31 2 -3 7 -9 12 -15 11 -6 -1 -16 19 -22 45 -7 26 -19 55 -27 65 -12 16
-12 17 1 7 18 -14 50 -14 50 -1 0 5 -21 30 -47 56 -90 90 -137 144 -139 159
-2 8 -19 31 -39 52 -20 20 -37 49 -39 64 -2 16 -8 31 -15 35 -7 4 -11 12 -10
17 4 25 -3 44 -17 44 -14 0 -14 -3 -4 -15 15 -18 9 -28 -11 -20 -8 3 -22 27
-32 54 -11 33 -24 50 -38 54 -18 5 -20 11 -15 32 4 16 3 24 -3 21 -17 -11 -22
12 -5 28 14 14 13 18 -9 38 -13 13 -29 38 -35 55 -10 29 -9 34 9 43 10 6 19
17 19 26 0 25 30 28 51 6 10 -12 19 -25 19 -30 0 -5 11 -19 25 -32 13 -12 23
-27 22 -33 -1 -6 7 -15 19 -21 27 -15 74 -62 74 -76 0 -9 15 -14 34 -11 5 1 6
-7 3 -18 -3 -13 -1 -18 8 -15 14 6 41 -23 31 -33 -3 -3 -6 -1 -6 5 0 7 -7 12
-17 12 -14 0 -14 -2 2 -20 10 -11 21 -17 26 -15 4 3 11 1 14 -5 4 -6 3 -9 -2
-8 -19 7 -16 -14 7 -52 17 -28 30 -40 42 -36 23 5 42 -19 35 -44 -3 -13 0 -20
8 -20 7 0 22 -12 33 -28 l21 -27 20 22 c26 27 26 35 1 58 -10 9 -19 20 -18 24
1 3 -11 31 -25 61 -15 30 -27 60 -27 65 0 6 -23 35 -50 64 -28 30 -50 63 -50
73 0 10 -4 18 -10 18 -5 0 -10 -5 -10 -11 0 -18 -23 -4 -31 19 -8 21 -7 22 14
11 22 -12 22 -11 -2 14 -24 26 -20 53 6 43 8 -3 11 -1 8 4 -3 6 0 10 7 10 8 0
9 3 3 8 -5 4 -11 24 -12 46 -2 38 -2 38 17 21 11 -10 18 -21 15 -24 -2 -4 4
-20 14 -35 12 -17 21 -24 26 -17 3 6 11 8 17 5 8 -5 9 -1 4 11 -5 15 -4 16 9
5 21 -18 19 -30 -7 -30 -12 0 -19 -3 -15 -6 3 -3 19 -3 35 1 27 6 29 8 18 30
-6 13 -15 23 -20 22 -6 -1 -10 3 -11 10 0 18 -15 28 -15 10 0 -23 -13 -21 -36
5 -18 20 -18 21 -1 15 10 -4 16 -3 12 2 -10 18 11 20 43 4 18 -9 32 -23 32
-32 0 -10 13 -30 29 -45 21 -20 29 -37 29 -62 0 -18 7 -41 16 -49 9 -9 14 -26
12 -38 -1 -12 -1 -16 1 -10 5 15 23 17 23 3 0 -6 11 -16 25 -22 14 -6 25 -17
25 -25 0 -7 6 -13 13 -13 8 0 7 -4 -3 -10 -13 -9 -12 -13 8 -29 15 -13 22 -30
22 -53 0 -67 1 -77 14 -72 6 2 22 -7 34 -21 13 -14 26 -24 31 -21 4 3 8 -1 8
-9 0 -11 -4 -12 -14 -4 -9 9 -13 8 -13 0 0 -6 7 -14 15 -17 19 -8 19 -21 -1
-41 -8 -9 -13 -21 -11 -27 7 -17 -30 -17 -44 0 -8 10 -8 14 0 14 19 0 12 17
-9 23 -11 3 -20 1 -20 -3 0 -5 -9 -11 -19 -15 -26 -8 -17 -34 22 -65 17 -14
28 -19 23 -12 -6 10 -3 12 10 10 20 -3 45 -31 43 -45 -4 -21 3 -31 21 -36 13
-3 20 0 20 9 0 8 7 14 16 14 8 0 12 4 9 10 -12 19 14 10 35 -12 13 -14 19 -31
16 -43 -3 -11 -6 -26 -6 -32 0 -7 -8 -13 -18 -13 -24 0 -32 -8 -25 -26 9 -24
38 -15 77 25 35 36 37 41 28 75 -11 38 -5 44 28 26 17 -9 20 -6 23 22 7 48 6
88 -2 84 -13 -8 -10 60 4 99 8 22 19 68 25 103 6 34 26 90 44 125 18 34 60
114 94 177 128 241 234 567 286 880 66 397 41 855 -68 1251 -46 168 -144 412
-215 539 -4 8 -23 44 -41 80 -37 71 -88 157 -159 265 -41 62 -84 118 -247 319
-62 76 -255 261 -374 358 -167 135 -392 277 -590 371 -261 125 -522 218 -699
248 -275 48 -298 50 -571 54 -151 2 -288 1 -305 -1z m-253 -683 c-2 -9 4 -12
18 -8 13 3 18 1 13 -6 -4 -7 0 -8 11 -4 10 4 25 3 34 -2 9 -5 31 -10 47 -12
17 -2 38 -10 48 -18 9 -8 17 -10 17 -5 0 11 40 11 58 0 8 -4 12 -1 12 10 0 14
8 15 67 9 36 -4 72 -9 80 -12 7 -3 13 2 13 11 0 9 5 16 11 16 5 0 7 -4 4 -10
-3 -6 6 -11 22 -12 52 -3 58 -4 78 -15 45 -24 97 -36 104 -24 6 9 15 7 37 -4
16 -8 41 -15 56 -15 31 0 78 -19 78 -32 0 -4 -9 -8 -20 -8 -13 0 -18 -5 -13
-16 5 -13 9 -12 28 6 15 14 25 18 30 11 3 -6 11 -11 17 -11 6 0 6 6 -2 15 -9
11 -10 19 -2 27 14 14 32 1 32 -23 0 -12 7 -19 18 -18 10 0 12 3 5 6 -15 5
-18 23 -5 23 5 0 14 -11 20 -25 11 -24 42 -35 42 -15 0 6 9 10 20 10 11 0 20
-5 20 -11 0 -7 10 -9 25 -7 14 3 25 1 25 -3 0 -5 8 -6 18 -3 13 5 14 4 3 -4
-7 -5 -10 -15 -7 -21 4 -6 2 -11 -3 -11 -6 0 -11 5 -11 10 0 18 -18 10 -23
-10 -4 -16 0 -20 20 -20 14 0 39 -10 56 -22 18 -13 32 -21 32 -20 0 5 57 -16
87 -32 20 -11 28 -11 32 -3 3 8 11 5 23 -8 21 -23 30 -24 58 -8 19 12 19 13
-10 37 -32 27 -61 33 -67 14 -2 -6 -10 -8 -16 -4 -9 5 -9 11 3 22 14 14 69 15
90 2 6 -3 27 -9 48 -13 25 -5 37 -13 37 -24 0 -11 3 -12 8 -4 8 13 38 -4 40
-22 1 -18 22 -17 22 1 0 13 7 8 25 -16 14 -19 25 -39 25 -46 0 -7 4 -16 10
-19 6 -3 7 1 4 9 -3 9 -1 16 5 16 6 0 11 -8 11 -18 0 -10 5 -23 11 -29 8 -8 0
-12 -26 -15 -28 -3 -40 0 -48 13 -8 13 -15 15 -24 7 -10 -8 -13 -6 -13 6 0 9
-8 16 -20 16 -11 0 -20 5 -20 11 0 8 -4 9 -13 0 -8 -6 -16 -10 -18 -8 -2 1 2
-3 9 -10 8 -6 20 -9 28 -6 8 3 14 0 14 -7 0 -16 30 -39 50 -40 8 0 28 -12 44
-27 28 -26 29 -26 43 -7 13 17 14 16 10 -19 -5 -48 -10 -52 -39 -36 -12 7 -29
12 -37 10 -8 -1 -10 2 -5 11 6 10 4 10 -9 -1 -9 -7 -17 -9 -17 -3 0 5 -13 15
-29 20 -19 7 -29 17 -28 29 2 13 -6 19 -26 21 -20 3 -27 8 -23 18 3 8 2 13 -3
9 -5 -3 -31 6 -58 19 l-48 25 -3 -24 c-3 -19 -9 -25 -28 -25 -13 0 -24 4 -24
9 0 5 -12 16 -26 26 -15 9 -23 12 -20 6 4 -6 0 -11 -8 -11 -9 0 -16 -4 -16
-10 0 -5 5 -10 10 -10 16 0 11 -19 -11 -41 l-21 -21 7 24 c4 15 3 19 -3 10
-15 -22 -59 -41 -70 -30 -7 7 -12 -5 -17 -34 -9 -53 -15 -64 -26 -47 -7 12
-10 12 -21 0 -10 -11 -10 -14 0 -18 15 -6 16 -33 0 -33 -6 0 -9 -3 -5 -6 3 -4
0 -13 -8 -21 -21 -20 -19 -28 11 -41 14 -7 23 -8 19 -3 -3 5 4 13 16 16 14 5
19 13 16 24 -2 10 4 23 14 30 12 7 19 7 19 1 0 -5 6 -10 14 -10 31 0 25 -21
-9 -37 -29 -14 -36 -22 -32 -40 4 -20 0 -23 -24 -23 -15 0 -34 -7 -43 -15 -8
-8 -17 -15 -20 -15 -3 0 -3 7 0 15 8 19 -6 19 -40 1 -14 -7 -38 -12 -53 -10
-16 1 -36 -4 -45 -13 -13 -11 -18 -12 -18 -3 0 9 -12 10 -47 5 -57 -8 -60 -10
-43 -30 12 -14 47 -14 69 -1 5 4 12 2 16 -4 4 -6 11 -8 16 -5 5 3 6 -1 3 -9
-3 -9 -2 -16 4 -16 5 0 13 7 16 16 5 12 9 14 20 5 7 -6 21 -9 30 -5 18 7 19 4
10 -21 -5 -12 -9 -13 -14 -5 -4 7 -12 11 -18 9 -7 -3 -6 -10 2 -21 11 -16 14
-15 39 8 32 29 37 30 30 4 -3 -13 0 -20 8 -21 24 -1 -45 -28 -73 -29 -15 0
-30 -4 -33 -10 -3 -5 -1 -10 5 -10 7 0 10 -5 8 -11 -2 -6 -8 -9 -13 -7 -15 5
-16 36 -1 51 8 8 11 19 6 27 -6 9 -13 4 -25 -19 -14 -27 -21 -32 -41 -27 -23
6 -34 -7 -15 -18 5 -4 8 -14 6 -24 -2 -9 -4 -20 -4 -24 -1 -4 -14 -14 -31 -23
-26 -13 -29 -14 -24 0 7 17 -17 19 -51 6 -11 -5 -29 -4 -40 2 -13 7 -20 7 -23
-2 -2 -6 -11 -11 -20 -11 -13 0 -14 2 -4 9 11 7 11 9 -2 14 -9 4 -16 14 -16
24 0 15 2 15 15 -3 14 -18 15 -18 12 6 -1 14 -10 31 -19 38 -18 13 -19 36 -5
60 13 20 -7 14 -26 -8 -10 -13 -22 -18 -30 -13 -22 14 -39 12 -79 -9 -37 -20
-39 -23 -33 -55 3 -19 9 -41 12 -50 4 -10 0 -14 -13 -13 -10 1 -29 2 -42 1
-20 -1 -21 -4 -11 -22 14 -27 -3 -46 -50 -54 -47 -8 -51 -12 -51 -44 0 -15 -3
-31 -7 -35 -14 -14 -13 -46 2 -46 8 0 15 -7 15 -16 0 -10 -4 -12 -12 -7 -7 4
-17 8 -23 9 -5 0 -16 2 -24 2 -11 2 -10 7 5 25 10 12 15 19 10 15 -4 -4 -19
-3 -32 2 -14 6 -26 6 -29 -1 -9 -13 -67 22 -61 37 3 9 -4 11 -22 8 -51 -9 -59
-15 -32 -27 20 -8 22 -11 8 -14 -14 -4 -17 -14 -15 -53 3 -41 1 -48 -10 -38
-11 9 -18 7 -31 -6 -16 -16 -16 -17 2 -10 16 6 18 4 13 -10 -4 -10 -7 -22 -7
-27 0 -5 -6 -8 -12 -6 -8 1 -13 -9 -13 -25 1 -14 -3 -24 -7 -22 -9 6 -47 -25
-60 -51 -11 -20 -11 -20 11 -1 11 11 21 14 21 8 0 -6 -4 -14 -10 -17 -13 -8
-13 -35 1 -35 5 0 8 4 5 9 -6 10 29 59 37 51 2 -3 7 -17 11 -32 7 -31 -7 -38
-23 -10 -9 14 -10 13 -11 -12 0 -22 4 -27 16 -22 11 4 15 2 11 -8 -4 -9 1 -16
11 -19 15 -3 14 -5 -3 -12 -27 -11 -55 -36 -55 -49 0 -6 5 -4 10 4 8 11 9 9 8
-12 -1 -16 -6 -28 -11 -28 -5 0 -7 -6 -4 -14 3 -8 1 -16 -5 -18 -6 -2 -11 -24
-11 -49 0 -44 -1 -46 -28 -44 -16 1 -29 -2 -29 -6 0 -4 -13 -14 -30 -23 -16
-8 -30 -10 -30 -5 0 5 5 9 11 9 8 0 7 5 -1 15 -11 13 -10 14 5 9 13 -5 16 -4
11 4 -5 8 2 12 21 13 15 0 22 3 16 6 -7 2 -13 12 -13 22 0 9 -5 22 -11 28 -17
17 -1 34 24 27 18 -4 23 -1 24 17 2 20 1 20 -11 4 -9 -13 -15 -15 -20 -7 -4 7
-3 12 2 12 5 0 12 9 15 20 6 23 -3 26 -22 8 -8 -7 -11 -8 -8 -3 3 6 2 17 -4
25 -10 16 -10 16 -13 -42 -2 -31 -11 -44 -21 -29 -3 6 -1 11 5 11 6 0 8 5 5
10 -9 14 14 82 25 75 5 -3 12 0 16 6 5 8 -1 10 -20 7 -27 -5 -27 -5 -7 13 11
11 25 19 31 19 5 0 10 5 10 11 0 5 -6 7 -12 3 -10 -6 -10 -5 -1 8 7 8 10 18 6
21 -3 4 1 7 9 7 18 0 28 20 28 57 0 19 4 24 16 19 9 -3 12 -2 9 5 -4 5 0 21 9
34 19 29 20 36 4 32 -17 -3 -59 -83 -52 -100 4 -11 -1 -13 -21 -10 -23 5 -24
6 -8 18 16 12 14 12 -11 8 -25 -5 -28 -9 -23 -37 3 -17 8 -39 12 -49 6 -13 3
-16 -9 -11 -9 3 -13 10 -10 15 3 5 -2 9 -12 9 -13 0 -15 6 -10 32 8 39 33 69
52 61 8 -3 14 0 14 6 0 6 -4 11 -9 11 -5 0 -7 9 -4 19 3 14 13 19 31 18 21 -2
27 3 27 18 0 14 -8 21 -27 23 -22 3 -28 -2 -39 -32 -8 -23 -16 -31 -20 -24 -4
7 -2 21 4 32 6 12 10 25 9 29 -1 5 2 6 8 2 14 -9 13 8 -2 24 -11 10 -8 12 12
8 14 -2 20 -2 13 0 -7 3 -10 20 -8 44 3 35 2 39 -11 28 -8 -7 -14 -8 -13 -3 5
22 -14 64 -30 64 -23 0 -25 40 -3 56 9 7 20 10 24 8 5 -3 8 1 8 9 0 8 -6 17
-13 20 -19 7 -41 -8 -33 -22 4 -6 4 -11 0 -11 -13 0 -44 33 -44 46 0 15 -51
57 -59 48 -3 -3 1 -11 10 -17 9 -7 14 -18 12 -24 -3 -7 1 -13 7 -13 6 0 10 -6
8 -12 -3 -7 1 -19 9 -26 15 -16 18 -56 3 -47 -5 3 -10 -1 -10 -10 0 -9 -5 -13
-11 -9 -7 4 -10 1 -7 -7 3 -8 11 -14 19 -14 21 0 31 -22 20 -43 -7 -13 -7 -22
1 -30 8 -8 5 -9 -11 -5 -11 3 -21 9 -21 14 0 15 -29 -2 -33 -19 -3 -10 -3 3
-1 28 2 24 -2 50 -8 57 -6 7 -8 22 -5 32 4 15 1 18 -11 13 -11 -4 -8 5 10 28
18 22 23 38 18 49 -4 9 -13 29 -20 45 -7 18 -14 25 -18 19 -5 -8 -13 -7 -26 3
-16 11 -17 16 -6 29 10 12 9 20 -5 41 -9 14 -19 23 -23 20 -3 -4 0 -12 6 -18
15 -15 16 -38 2 -38 -6 0 -15 12 -20 26 -6 14 -16 24 -23 21 -15 -5 -47 10
-47 24 0 6 5 7 12 3 7 -5 8 -3 4 5 -5 7 -14 10 -22 7 -8 -3 -11 0 -7 10 3 7 0
14 -6 14 -6 0 -11 -4 -11 -10 0 -15 -32 -12 -54 5 -11 8 -16 15 -10 15 5 0 15
4 23 9 12 8 12 12 -2 26 -15 15 -17 15 -17 1 0 -9 -5 -16 -11 -16 -6 0 -9 6
-6 14 3 8 1 17 -6 20 -8 3 -6 9 6 20 18 14 18 16 1 41 -13 20 -19 23 -26 13
-6 -10 -10 -10 -18 2 -9 12 -10 12 -8 -5 2 -13 -5 -23 -19 -30 -17 -7 -21 -15
-17 -30 4 -11 11 -21 15 -23 17 -7 8 -22 -22 -38 -19 -9 -28 -11 -24 -4 4 7 2
16 -4 20 -10 5 -9 16 3 44 8 20 11 36 5 36 -5 0 -9 -4 -9 -10 0 -5 -5 -10 -11
-10 -5 0 -7 5 -4 10 3 6 0 10 -7 10 -9 0 -9 3 2 10 13 9 13 11 0 20 -12 8 -9
10 13 10 15 0 27 5 27 10 0 6 -4 10 -10 10 -6 0 -6 9 0 24 7 19 5 28 -10 41
-12 11 -20 13 -25 6 -3 -6 -11 -11 -17 -11 -7 0 -7 4 0 13 8 10 5 13 -13 15
-12 1 -26 -5 -29 -13 -3 -8 -2 -15 3 -15 4 0 8 -7 8 -15 0 -8 -4 -12 -8 -9 -5
3 -19 -2 -33 -11 -18 -12 -25 -13 -29 -3 -2 7 3 20 11 28 14 13 15 12 9 -3 -8
-21 6 -22 23 -2 17 21 -8 29 -44 15 -35 -13 -36 -13 -30 4 3 9 -3 17 -18 22
l-23 7 23 8 c19 7 21 11 10 23 -11 13 -14 13 -24 0 -15 -19 -27 -18 -42 6 -7
12 -18 18 -24 14 -7 -4 -8 -3 -4 5 5 7 -11 30 -39 57 l-47 45 35 36 c41 41 85
47 153 20 23 -9 52 -18 65 -19 13 -2 34 -9 47 -16 19 -11 22 -10 22 7 0 13 15
26 45 41 48 23 41 25 130 -24 34 -18 71 -21 80 -6 3 6 15 10 26 10 11 0 18 -4
15 -9 -3 -4 4 -25 14 -47 11 -21 20 -44 20 -50 0 -17 43 -30 48 -15 2 6 9 8
15 4 7 -4 4 5 -5 20 -10 14 -18 38 -18 51 0 14 -7 31 -15 38 -9 7 -22 19 -30
26 -7 6 -18 12 -24 12 -5 0 -12 8 -15 18 -7 20 -2 80 7 88 3 4 2 17 -3 30 -22
56 18 60 148 13 l62 -23 73 23 c39 13 81 31 92 42 14 13 25 15 35 9 20 -13 40
-13 40 0 0 6 -7 10 -15 10 -8 0 -15 5 -15 11 0 5 -4 7 -10 4 -5 -3 -10 -2 -10
4 0 6 -6 8 -14 5 -7 -3 -16 2 -20 12 -4 12 -2 15 9 10 8 -3 15 -1 15 5 0 6 21
9 53 7 38 -2 51 -7 49 -17z m-639 -115 c21 -16 33 -66 16 -66 -6 0 -9 -9 -6
-20 3 -12 0 -20 -6 -20 -12 1 -57 86 -57 108 0 16 30 15 53 -2z m-847 -73 c5
13 9 14 27 4 12 -7 28 -18 35 -25 8 -7 21 -11 29 -7 10 3 13 1 10 -9 -5 -12 0
-13 26 -5 42 12 47 12 47 -6 0 -7 8 -19 18 -25 15 -10 14 -10 -5 -5 -12 3 -24
1 -28 -5 -3 -5 0 -10 7 -10 8 0 6 -5 -4 -11 -26 -15 -22 -23 17 -38 31 -11 34
-15 30 -41 -6 -33 32 -99 53 -92 7 2 13 -1 13 -7 1 -6 3 -15 4 -21 1 -5 3 -13
4 -17 1 -5 6 -1 11 7 6 9 10 10 10 3 0 -6 8 -14 18 -17 14 -4 14 -5 -3 -4 -39
1 -50 -2 -39 -10 6 -4 15 -20 21 -37 6 -21 19 -33 40 -39 17 -5 36 -20 42 -33
6 -13 15 -22 20 -19 5 3 29 -10 54 -29 25 -19 53 -35 61 -35 9 0 16 -4 16 -10
0 -5 5 -10 10 -10 27 0 103 -108 91 -128 -4 -7 11 -31 36 -58 24 -26 43 -51
43 -55 0 -5 6 -9 14 -9 7 0 21 -11 30 -25 9 -14 23 -25 31 -25 8 0 15 -4 15
-10 0 -13 42 -55 55 -55 13 0 60 -49 134 -136 55 -66 97 -153 106 -217 2 -17
6 -35 8 -39 3 -4 8 -34 11 -66 6 -55 19 -113 65 -292 11 -43 18 -81 16 -84 -3
-2 0 -10 5 -16 15 -19 24 -95 11 -95 -6 0 -11 -12 -11 -27 0 -23 -6 -80 -9
-90 -4 -12 9 -17 33 -14 25 2 27 1 15 -11 -8 -8 -31 -14 -51 -14 -33 2 -36 0
-33 -24 2 -14 4 -25 6 -25 1 0 3 -21 4 -47 2 -36 -1 -45 -11 -41 -19 7 -18 -9
2 -33 8 -10 12 -13 8 -5 -4 9 -3 12 4 7 6 -4 7 -17 3 -34 -9 -31 9 -75 36 -91
13 -7 25 -4 44 10 16 11 30 15 34 10 9 -15 34 -1 28 15 -3 9 -11 13 -18 10 -8
-3 -16 2 -19 10 -3 8 -1 14 5 14 6 0 7 5 3 12 -9 15 -6 111 7 166 5 25 20 52
35 65 18 16 26 33 27 59 0 20 4 35 8 32 4 -2 10 4 13 13 4 9 1 20 -5 24 -9 5
-6 19 10 52 12 25 21 49 19 53 -4 12 77 215 118 296 39 77 131 216 180 270 18
21 44 55 58 76 13 21 65 82 116 134 80 84 97 97 130 100 21 2 36 0 34 -3 -6
-10 77 -79 87 -73 14 8 10 -9 -6 -30 -21 -28 -19 -58 3 -54 11 3 16 12 14 27
-2 20 -1 21 14 7 19 -20 23 -20 70 1 22 9 43 16 47 15 17 -5 67 33 67 50 0 10
7 21 16 25 10 4 12 8 5 12 -6 4 4 22 26 45 37 38 53 76 31 76 -17 0 32 49 67
67 17 8 43 29 58 45 27 29 52 33 28 5 -9 -11 -8 -17 4 -27 13 -11 24 -9 63 13
43 23 51 24 94 15 32 -8 58 -8 87 -1 33 9 41 8 41 -3 0 -17 44 -29 67 -18 10
4 22 6 26 5 13 -3 77 71 77 89 0 13 6 16 23 13 13 -3 29 2 36 11 7 8 19 12 27
9 8 -3 14 1 14 11 0 9 7 16 16 16 11 0 14 -6 9 -22 -6 -18 -4 -20 11 -13 11 4
44 16 74 27 103 36 215 98 310 170 52 39 97 75 98 80 2 4 9 8 16 8 6 0 27 13
46 28 58 47 77 55 89 35 6 -12 5 -26 -5 -45 -13 -25 -13 -29 4 -46 16 -16 18
-26 10 -73 -4 -30 -10 -70 -12 -89 -4 -45 -16 -67 -66 -125 -38 -43 -49 -65
-33 -65 3 0 18 12 32 28 14 15 34 34 44 41 15 12 17 12 11 -4 -5 -12 -1 -22
10 -31 17 -12 17 -14 -3 -35 -24 -26 -12 -51 14 -29 13 11 19 10 38 -7 12 -11
30 -23 40 -27 20 -6 19 -27 -1 -34 -7 -2 -12 3 -12 12 0 18 -16 21 -25 5 -4
-6 0 -16 9 -22 8 -7 20 -25 26 -41 9 -23 7 -32 -6 -47 -20 -22 -11 -38 11 -19
8 7 15 11 16 9 10 -46 12 -145 4 -160 -4 -5 -8 -28 -11 -51 -3 -24 -7 -51 -10
-60 -3 -10 0 -26 6 -38 8 -14 8 -26 0 -40 -8 -15 -8 -20 1 -20 8 0 10 -13 6
-40 -5 -36 -3 -39 16 -37 14 1 21 -3 19 -12 -3 -14 35 -61 49 -61 4 0 6 12 4
28 -2 15 -2 21 1 15 3 -7 12 -13 20 -13 17 0 18 -12 2 -28 -9 -9 -9 -15 1 -24
10 -11 15 -9 27 7 l16 20 -4 -20 c-2 -11 -7 -24 -13 -28 -6 -5 -4 -7 5 -4 8 2
20 14 26 26 8 15 14 19 19 11 4 -6 -1 -17 -11 -24 -9 -7 -14 -18 -11 -23 4 -6
-3 -13 -15 -17 -18 -4 -20 -8 -11 -17 9 -9 10 -16 1 -26 -6 -7 -8 -16 -5 -20
8 -8 57 38 57 55 0 6 7 12 16 12 13 0 14 3 5 14 -9 11 -6 14 14 14 14 0 25 -4
25 -9 0 -5 -4 -9 -9 -9 -5 0 -1 -16 10 -36 17 -34 17 -38 1 -60 -9 -13 -27
-24 -39 -24 -32 0 -53 -10 -53 -26 0 -18 19 -18 26 0 5 12 9 12 25 -2 10 -9
19 -22 19 -29 0 -20 18 -15 25 7 3 11 11 20 17 20 5 0 7 7 4 16 -3 8 -1 25 5
36 8 15 8 22 -1 28 -7 4 -9 13 -5 20 4 6 -1 18 -11 25 -17 13 -17 16 -4 25 23
15 34 12 49 -12 11 -18 11 -22 -2 -30 -13 -7 -12 -12 11 -35 17 -17 22 -28 14
-31 -7 -2 -12 -18 -12 -35 0 -26 -2 -29 -11 -17 -8 12 -9 9 -4 -10 14 -56 14
-85 1 -112 -8 -15 -10 -28 -5 -28 5 0 9 -4 9 -10 0 -19 -38 -10 -43 11 -3 12
-10 18 -16 14 -6 -3 -11 -1 -11 4 0 6 10 11 23 11 22 0 22 0 -3 20 -15 11 -26
15 -29 8 -2 -6 -12 -19 -22 -29 -19 -19 -16 -53 5 -46 14 5 39 -20 32 -32 -13
-20 6 -38 37 -37 41 2 60 14 53 32 -3 8 -2 14 2 14 5 0 18 9 31 21 17 16 25
18 36 9 16 -13 28 1 19 23 -3 10 2 18 15 22 13 4 21 15 21 28 0 22 1 21 20 -3
11 -14 20 -32 20 -41 0 -20 -34 -51 -45 -42 -5 5 -4 1 2 -7 7 -9 7 -23 2 -37
-9 -26 -29 -31 -29 -8 0 19 -11 19 -36 1 -10 -8 -30 -13 -44 -10 -14 3 -21 2
-15 -3 6 -4 18 -20 28 -35 15 -24 15 -29 2 -42 -20 -20 -19 -29 4 -23 14 3 18
1 14 -9 -3 -8 0 -14 6 -14 10 0 16 21 12 43 0 4 4 7 9 7 15 0 12 30 -6 47 -12
13 -13 17 -2 24 16 10 26 -13 28 -72 3 -65 2 -69 -16 -62 -9 3 -20 0 -25 -8
-8 -12 -12 -11 -24 5 -8 11 -15 17 -15 13 0 -4 -9 -3 -20 3 -16 9 -18 8 -13
-6 3 -8 16 -20 29 -25 15 -5 24 -17 25 -31 1 -16 3 -18 6 -6 2 9 10 19 18 22
10 3 12 0 8 -11 -5 -13 -3 -13 15 -4 28 15 32 14 25 -6 -5 -12 -2 -15 10 -10
9 3 19 2 22 -3 4 -6 1 -10 -4 -10 -6 0 -11 -5 -11 -11 0 -5 4 -8 9 -4 14 8 21
-9 10 -25 -7 -13 -9 -13 -9 0 -1 12 -3 11 -11 -2 -5 -10 -17 -18 -25 -18 -8 0
-13 -4 -10 -9 3 -5 -3 -11 -14 -14 -13 -3 -24 1 -30 13 -14 26 -13 29 12 22
14 -3 19 -2 14 6 -10 17 -36 15 -58 -5 -17 -15 -20 -15 -40 6 -19 21 -22 21
-30 7 -15 -27 1 -39 49 -33 53 6 55 -15 2 -23 -31 -5 -32 -7 -11 -14 25 -9 29
-21 7 -30 -8 -3 -15 -11 -15 -17 0 -7 9 -5 25 5 14 9 25 12 25 7 0 -5 -4 -11
-10 -13 -5 -1 -11 -13 -13 -26 -2 -13 -10 -28 -18 -33 -10 -8 -8 -9 9 -4 16 5
22 2 22 -9 0 -9 5 -16 11 -16 6 0 9 9 6 20 -6 25 7 33 53 34 31 1 35 -2 34
-23 -1 -23 -30 -49 -41 -37 -4 3 -1 6 5 6 7 0 12 5 12 10 0 6 -7 10 -15 10 -8
0 -15 5 -15 11 0 5 -5 7 -11 3 -6 -3 -7 -9 -3 -13 13 -9 17 -41 5 -41 -5 0
-11 4 -13 9 -6 17 -48 -8 -48 -29 0 -11 4 -20 9 -20 5 0 13 -9 16 -20 3 -11
13 -20 22 -20 25 0 8 -25 -20 -28 -16 -2 -27 -9 -27 -19 0 -13 -3 -13 -15 -3
-18 15 -10 30 16 30 23 0 23 30 1 38 -8 2 -10 -2 -6 -13 4 -9 3 -15 -2 -14 -5
1 -11 1 -14 -1 -19 -7 -60 -7 -60 0 0 14 33 21 40 9 4 -6 10 -7 13 -3 3 5 -4
20 -14 33 -15 18 -23 21 -31 13 -9 -9 -9 -12 2 -12 10 0 9 -4 -3 -18 -10 -10
-17 -24 -17 -30 0 -7 -9 -12 -20 -12 -11 0 -20 -7 -20 -15 0 -19 17 -19 37 0
8 9 20 14 27 12 19 -6 13 -61 -9 -80 -20 -18 -20 -18 2 -12 13 4 23 2 23 -4 0
-5 7 -11 16 -13 10 -2 5 -7 -15 -15 -17 -6 -31 -7 -31 -2 0 5 8 9 18 10 9 1 1
5 -18 9 -19 5 -38 6 -42 4 -5 -3 -8 0 -8 5 0 6 8 12 18 12 16 1 16 2 0 6 -10
2 -18 11 -18 19 0 8 -4 14 -10 14 -5 0 -7 6 -4 14 3 8 1 17 -5 21 -7 3 -11 -3
-11 -16 0 -20 -4 -21 -55 -17 -31 3 -55 1 -55 -5 0 -5 -7 -7 -15 -3 -12 4 -13
2 -2 -14 6 -11 17 -20 24 -20 7 0 22 -9 32 -19 16 -16 20 -17 25 -5 9 23 38
18 31 -6 -4 -12 -2 -20 5 -20 7 0 5 -7 -4 -16 -9 -8 -14 -20 -11 -25 4 -5 1
-9 -4 -9 -6 0 -11 4 -11 10 0 5 -7 6 -17 3 -9 -4 -14 -2 -11 3 3 5 -10 9 -29
10 -27 0 -32 -2 -22 -10 23 -18 20 -44 -5 -39 -19 4 -20 3 -4 -10 10 -8 15
-17 11 -20 -3 -4 -1 -7 6 -7 7 0 9 -5 6 -11 -4 -6 -13 -8 -21 -5 -8 3 -14 1
-14 -4 0 -6 7 -10 16 -10 10 0 14 -6 11 -14 -6 -14 20 -30 39 -24 5 1 19 -3
30 -10 18 -9 24 -9 34 3 8 9 8 15 2 15 -6 0 -12 -4 -14 -9 -1 -5 -9 -3 -15 4
-10 11 -10 17 3 29 11 12 26 14 57 10 l42 -7 -19 22 c-12 14 -22 18 -26 11 -4
-6 -11 -10 -16 -9 -5 1 -11 0 -14 -1 -28 -11 -40 -7 -35 11 5 14 -1 26 -20 41
-14 11 -24 22 -21 25 2 3 15 -4 27 -16 13 -12 30 -21 38 -22 9 0 29 -2 45 -4
27 -4 27 -3 11 15 -10 11 -15 26 -12 34 3 8 3 17 -1 20 -3 4 -7 13 -8 21 -3
23 43 19 56 -5 13 -24 -5 -28 -18 -4 -8 14 -10 13 -14 -8 -4 -19 0 -24 16 -23
12 0 27 4 34 8 19 13 14 -7 -8 -33 -24 -28 -27 -65 -4 -56 8 3 13 2 10 -3 -3
-5 1 -15 10 -22 13 -10 17 -10 24 1 4 7 6 20 3 29 -3 11 -2 12 4 4 6 -9 19 -9
50 0 38 10 44 9 60 -9 10 -12 25 -23 33 -27 13 -4 12 -6 -1 -6 -9 -1 -22 6
-29 14 -12 15 -73 16 -87 2 -11 -12 7 -39 22 -33 8 3 15 2 15 -3 0 -5 -11 -11
-25 -13 -14 -3 -25 -2 -25 2 0 14 -53 22 -60 9 -4 -6 -12 -9 -17 -6 -6 4 -9
-5 -7 -20 1 -15 -2 -35 -7 -45 -8 -14 -6 -18 9 -18 10 0 26 -6 36 -13 16 -12
17 -16 5 -35 -14 -23 -39 -30 -39 -11 0 5 -4 8 -9 5 -11 -7 -37 22 -46 52 -4
15 -2 24 7 27 16 6 18 49 4 62 -5 5 -6 3 -2 -4 4 -8 -2 -17 -18 -25 -14 -6
-26 -17 -26 -25 0 -7 -5 -13 -11 -13 -6 0 -8 9 -4 20 5 16 2 20 -19 20 -24 0
-31 -10 -27 -34 3 -13 -20 -25 -36 -19 -7 3 -13 13 -13 24 0 10 -8 23 -17 28
-16 9 -16 12 -3 21 11 7 11 10 2 10 -7 0 -11 4 -8 8 2 4 -4 13 -14 20 -18 11
-19 6 -22 -88 -2 -61 1 -102 7 -104 6 -2 5 -9 -2 -17 -7 -7 -13 -8 -13 -3 0 6
-7 11 -15 11 -13 0 -20 -16 -16 -39 0 -5 -5 -8 -13 -8 -8 0 -16 -7 -20 -15 -3
-8 0 -15 6 -15 7 0 7 -4 0 -13 -5 -6 -12 -23 -14 -37 -1 -14 -7 -25 -13 -26
-5 0 -25 -4 -44 -8 -23 -6 -30 -11 -20 -16 7 -5 17 -6 21 -4 5 3 8 2 7 -3 -6
-35 22 -46 40 -16 10 17 10 17 11 1 0 -11 8 -18 20 -18 11 0 20 3 20 6 0 10
-28 34 -40 34 -8 0 -7 6 1 22 11 20 12 20 24 4 7 -9 15 -12 16 -7 2 6 9 -1 16
-14 6 -14 7 -23 2 -19 -5 3 -9 0 -9 -5 0 -6 9 -11 20 -11 11 0 20 -4 20 -10 0
-5 6 -10 13 -10 7 0 13 -13 13 -31 1 -23 -2 -29 -13 -25 -8 3 -20 6 -26 6 -7
0 -27 14 -46 30 -34 30 -51 37 -51 21 0 -5 -6 -8 -12 -7 -7 0 -15 -3 -18 -9
-3 -5 6 -10 20 -10 34 -1 56 -15 63 -43 7 -29 -19 -44 -65 -37 -23 4 -27 3
-14 -3 19 -8 19 -9 0 -17 -10 -4 -39 -11 -64 -15 -25 -4 -53 -10 -62 -14 -14
-6 -16 -3 -13 14 4 21 3 21 -19 7 -22 -15 -23 -15 -19 11 l4 27 -20 -24 c-12
-13 -21 -19 -21 -14 0 36 -157 -36 -227 -104 l-43 -42 -16 24 c-9 14 -20 23
-25 20 -9 -6 -24 -92 -20 -114 2 -13 1 -13 -15 0 -16 13 -17 12 -11 -5 11 -27
-23 -50 -39 -28 -11 14 -13 11 -19 -21 -4 -20 -11 -35 -15 -32 -5 3 -11 2 -14
-3 -8 -14 -66 -13 -95 2 -41 21 -54 86 -18 86 14 0 39 27 56 58 8 16 7 21 -5
26 -24 9 -31 7 -50 -11 -9 -10 -31 -16 -50 -16 -23 1 -34 -3 -34 -13 0 -8 -6
-14 -12 -12 -14 3 -68 -47 -68 -62 0 -6 -7 -10 -16 -10 -9 0 -14 -6 -12 -12 3
-7 -6 -24 -19 -38 -13 -14 -21 -31 -18 -37 2 -8 -3 -13 -14 -13 -10 0 -22 -7
-25 -15 -3 -9 -11 -15 -18 -14 -24 3 -57 -13 -61 -30 -3 -11 -5 -9 -6 7 0 12
4 22 11 22 6 0 9 2 6 5 -9 9 -38 -7 -38 -21 0 -8 -9 -14 -20 -14 -11 0 -25 -9
-32 -19 -6 -10 -18 -17 -25 -14 -9 4 -10 9 -3 17 7 9 4 12 -13 12 -16 -1 -23
6 -25 21 -3 20 -6 21 -24 12 -20 -11 -20 -12 -3 -21 13 -8 14 -12 5 -18 -15
-9 -52 -1 -45 10 8 13 -33 43 -59 43 -14 0 -23 4 -20 9 3 5 -5 6 -20 2 -18 -4
-26 -2 -26 7 0 10 -3 10 -12 1 -9 -9 -15 -9 -27 1 -12 9 -13 9 -7 0 4 -8 1
-13 -8 -13 -9 0 -16 -9 -16 -20 0 -11 -4 -20 -10 -20 -5 0 -10 -9 -10 -20 0
-11 -4 -20 -10 -20 -5 0 -10 -8 -9 -17 0 -10 3 -13 5 -7 7 17 52 4 57 -17 6
-21 -8 -26 -16 -6 -3 6 -6 -3 -6 -20 -1 -33 -21 -48 -21 -16 0 14 -2 14 -20
-2 -16 -15 -22 -16 -36 -5 -13 12 -17 11 -25 -1 -5 -8 -9 -17 -9 -21 0 -5 -7
-8 -15 -8 -8 0 -15 -7 -15 -16 0 -10 -6 -14 -14 -11 -8 3 -13 -1 -12 -11 1
-11 -10 -18 -37 -23 -36 -6 -63 -19 -39 -19 7 0 12 -5 12 -11 0 -6 -6 -9 -14
-6 -7 3 -19 0 -25 -6 -8 -8 -11 -8 -11 1 0 6 -10 11 -22 9 -17 -1 -23 3 -22
16 1 9 -2 17 -7 17 -5 0 -9 7 -9 15 0 19 1 19 -46 -2 -22 -9 -42 -16 -46 -15
-5 1 -8 -3 -8 -9 0 -6 -7 -8 -16 -5 -12 5 -15 2 -10 -11 6 -17 5 -17 -8 0 -7
9 -21 17 -30 17 -11 0 -16 9 -16 33 0 18 -5 38 -12 45 -7 7 -8 12 -4 12 5 0 3
7 -4 15 -7 8 -17 12 -22 9 -6 -4 -33 -8 -60 -9 -38 -2 -48 0 -44 11 3 8 1 14
-5 14 -5 0 -12 -7 -15 -15 -8 -21 -28 -19 -49 5 -10 11 -26 20 -36 20 -10 0
-24 7 -33 15 -19 19 -26 19 -26 0 0 -8 -4 -15 -10 -15 -5 0 -10 4 -10 9 0 4
-12 6 -26 3 -19 -3 -25 -1 -20 7 4 6 2 11 -4 11 -6 0 -8 5 -4 13 6 9 5 9 -8 0
-18 -15 -122 -19 -195 -8 -46 7 -60 15 -110 65 -57 57 -57 57 -85 41 -22 -13
-31 -14 -46 -4 -11 6 -23 8 -28 3 -5 -5 -27 -4 -51 3 -34 9 -43 16 -45 36 -2
20 -11 27 -43 35 -22 5 -42 12 -45 16 -3 4 -11 9 -19 12 -15 4 -49 97 -50 136
-1 12 -5 22 -9 22 -9 0 -42 -70 -42 -91 0 -11 -2 -11 -8 -1 -7 10 -12 8 -25
-6 -26 -28 -64 -17 -83 24 -9 20 -21 31 -29 28 -8 -3 -40 21 -73 54 -33 33
-70 63 -81 67 -12 3 -19 11 -16 16 4 5 -1 9 -10 9 -20 0 -51 -34 -71 -78 -10
-22 -21 -32 -32 -30 -21 3 -65 -26 -54 -37 4 -5 1 -5 -6 -1 -8 5 -18 1 -26 -9
-12 -17 -14 -17 -28 3 -8 12 -17 19 -21 16 -3 -3 -16 1 -29 10 -17 12 -18 16
-6 16 8 0 18 9 21 20 3 11 1 20 -4 20 -5 0 -9 11 -9 24 0 14 -5 37 -10 51 -8
22 -15 26 -38 21 -15 -3 -34 -2 -42 4 -11 7 -22 2 -41 -16 -24 -23 -59 -25
-59 -3 0 4 -7 5 -17 2 -11 -4 -14 -3 -9 5 4 7 -7 17 -29 26 -20 9 -35 21 -34
28 2 7 -3 32 -11 55 -12 40 -12 43 10 61 l23 18 -27 27 c-15 15 -24 32 -21 37
10 16 -11 12 -25 -5 -7 -8 -16 -13 -20 -10 -5 3 -22 -8 -39 -25 -16 -17 -32
-27 -35 -22 -3 4 -8 31 -12 59 -6 45 -4 52 17 67 20 14 22 18 9 26 -8 5 -19 5
-25 0 -6 -5 -18 -3 -28 5 -14 10 -17 21 -12 43 3 17 13 33 20 36 17 6 9 36
-10 36 -8 0 -17 9 -20 20 -3 11 -12 20 -20 20 -7 0 -15 9 -18 20 -3 12 0 20 7
20 14 0 5 94 -12 126 -10 20 -8 143 4 182 5 18 2 22 -15 22 -21 0 -21 1 -6 33
16 32 15 32 -22 -9 -57 -61 -77 -69 -108 -42 -25 21 -34 58 -15 58 6 0 10 5
10 10 0 11 -39 -8 -53 -25 -4 -5 -6 1 -5 15 2 14 9 24 15 23 8 -2 10 4 6 14
-4 10 -2 14 4 10 6 -4 14 1 18 11 3 9 5 17 3 17 -2 1 5 14 15 29 14 21 17 38
12 63 -5 26 -3 33 6 27 8 -4 10 -3 5 5 -12 19 4 50 32 66 23 12 18 21 -10 16
-6 -1 -5 64 1 110 1 4 10 9 21 12 22 6 19 28 -8 60 -14 15 -13 19 7 41 14 15
21 33 19 54 -1 17 -6 28 -10 26 -11 -7 -10 20 2 32 6 6 6 15 0 24 -9 13 -11
13 -20 0 -5 -8 -10 -22 -10 -31 0 -21 -31 -34 -40 -18 -7 11 9 69 22 79 12 9
21 60 10 60 -6 0 -10 21 -9 48 2 52 20 74 53 66 20 -5 36 12 39 41 0 6 4 16 9
23 4 8 9 27 10 42 2 26 -1 29 -21 24 -29 -8 -30 10 -2 34 23 19 48 59 30 48
-6 -4 -11 0 -11 9 0 9 7 15 16 13 11 -2 18 5 21 22 2 14 16 35 31 48 18 16 26
31 24 47 -2 18 2 24 18 27 21 3 68 71 75 109 8 39 56 118 94 151 53 48 59 63
55 127 -2 30 1 60 6 66 6 7 7 20 4 30 -5 11 6 44 28 89 20 39 43 96 51 126 54
194 47 179 104 206 54 26 55 28 68 106 6 37 -5 69 -32 96 -21 21 -15 37 7 17
17 -16 20 -16 26 -2z m2606 -25 c-12 -12 -35 -1 -27 12 3 5 13 6 21 3 10 -4
12 -9 6 -15z m-2394 -17 c10 -6 9 -10 -7 -14 -14 -3 -21 0 -21 9 0 16 9 18 28
5z m2503 -4 c-1 -12 -15 -9 -19 4 -3 6 1 10 8 8 6 -3 11 -8 11 -12z m-51 -7
c0 -5 -4 -10 -10 -10 -5 0 -10 5 -10 10 0 6 5 10 10 10 6 0 10 -4 10 -10z
m-2271 -139 c-3 -8 -10 -8 -23 2 -12 8 -16 19 -11 26 6 10 11 10 22 -2 9 -8
14 -20 12 -26z m2725 -53 c-6 -21 -5 -22 11 -8 17 14 17 13 10 -10 -10 -34
-12 -35 -30 -17 -13 14 -14 20 -3 37 17 26 21 25 12 -2z m-420 -23 c-4 -8 -8
-15 -10 -15 -2 0 -4 7 -4 15 0 8 4 15 10 15 5 0 7 -7 4 -15z m366 -5 c0 -5 -5
-10 -11 -10 -5 0 -7 5 -4 10 3 6 8 10 11 10 2 0 4 -4 4 -10z m-176 -26 c4 -10
1 -14 -6 -12 -15 5 -23 28 -10 28 5 0 13 -7 16 -16z m306 6 c0 -5 -4 -10 -10
-10 -5 0 -10 5 -10 10 0 6 5 10 10 10 6 0 10 -4 10 -10z m-474 -36 c-1 -33
-30 -31 -64 3 -15 15 -20 25 -12 21 8 -3 24 -2 35 2 29 11 43 2 41 -26z m84
19 c0 -5 -5 -15 -10 -23 -8 -12 -10 -11 -10 8 0 12 5 22 10 22 6 0 10 -3 10
-7z m-2062 -50 c2 -16 -2 -20 -22 -20 -22 0 -23 2 -13 24 12 27 31 26 35 -4z
m2012 12 c-7 -9 -15 -13 -17 -11 -7 7 7 26 19 26 6 0 6 -6 -2 -15z m138 8
c-19 -5 -25 -23 -8 -23 13 0 -13 -52 -35 -70 -11 -9 -19 -10 -23 -4 -4 6 -15
13 -25 17 -10 4 -15 11 -12 17 3 5 -1 10 -9 10 -19 0 -31 19 -19 31 11 11 45
1 38 -11 -3 -5 -1 -11 5 -15 5 -3 10 -1 10 6 0 10 3 10 12 1 18 -18 27 -14 23
9 -6 29 -1 34 32 36 15 0 20 -1 11 -4z m302 3 c0 -3 -4 -8 -10 -11 -5 -3 -10
-1 -10 4 0 6 5 11 10 11 6 0 10 -2 10 -4z m-523 -118 c-4 -10 -5 -18 -2 -18 4
0 3 -5 0 -11 -5 -6 -13 -3 -22 10 -8 12 -18 19 -23 16 -4 -3 -11 7 -14 21 -4
16 -12 24 -20 21 -16 -6 -36 11 -36 30 0 7 7 13 15 13 8 0 15 -4 15 -10 0 -5
5 -10 11 -10 6 0 8 9 4 23 -5 16 4 11 37 -23 33 -34 41 -49 35 -62z m3 66 c0
-14 -4 -23 -9 -19 -11 6 -10 45 1 45 4 0 8 -12 8 -26z m490 11 c-7 -9 -15 -13
-19 -10 -3 3 1 10 9 15 21 14 24 12 10 -5z m-2480 -20 c0 -16 -6 -25 -15 -25
-9 0 -15 9 -15 25 0 16 6 25 15 25 9 0 15 -9 15 -25z m2430 5 c0 -5 -9 -10
-20 -10 -11 0 -20 5 -20 10 0 6 9 10 20 10 11 0 20 -4 20 -10z m-373 -27 c4
-11 -26 -27 -35 -19 -2 3 -2 12 2 21 6 18 27 16 33 -2z m63 -23 c0 -5 -5 -10
-11 -10 -5 0 -7 5 -4 10 3 6 8 10 11 10 2 0 4 -4 4 -10z m-66 -39 c16 -14 27
-17 44 -10 12 4 22 13 22 19 0 8 6 8 20 0 11 -6 20 -7 20 -2 0 5 16 9 35 9 35
0 46 -10 22 -20 -8 -3 -20 -1 -28 3 -16 11 -29 -6 -29 -38 0 -13 -4 -21 -9
-17 -5 3 -12 1 -16 -5 -4 -7 -12 -7 -25 0 -12 7 -27 7 -44 0 -17 -6 -35 -6
-51 0 -19 7 -27 6 -35 -8 -9 -15 -11 -15 -22 -2 -18 21 -47 24 -54 6 -3 -9
-10 -13 -16 -10 -12 7 21 33 44 34 10 0 15 7 13 18 -1 9 0 12 2 6 2 -6 27 -11
56 -12 45 -2 50 0 35 12 -18 13 -25 36 -11 36 4 0 16 -9 27 -19z m-1904 -13
c0 -13 -23 -5 -28 10 -2 7 2 10 12 6 9 -3 16 -11 16 -16z m2100 -4 c0 -8 -5
-12 -10 -9 -6 4 -8 11 -5 16 9 14 15 11 15 -7z m-2086 -68 c8 -18 19 -37 25
-40 6 -4 9 -12 6 -17 -4 -5 1 -16 9 -25 22 -21 20 -34 -4 -29 -11 2 -22 -1
-25 -6 -7 -11 -25 -2 -25 12 0 6 5 7 11 3 18 -11 27 16 15 42 -6 13 -19 24
-29 24 -15 0 -16 3 -7 20 9 16 8 22 -5 26 -19 8 -20 24 0 24 8 0 21 -15 29
-34z m1886 -7 c0 -5 -17 -8 -37 -8 -31 2 -33 3 -10 6 15 2 25 9 22 14 -3 5 1
6 9 3 9 -3 16 -10 16 -15z m1110 -28 c0 -6 -4 -13 -10 -16 -5 -3 -10 1 -10 9
0 9 5 16 10 16 6 0 10 -4 10 -9z m26 -88 c0 -7 -3 -13 -7 -13 -15 0 -39 32
-39 52 0 21 1 20 23 -3 12 -13 23 -30 23 -36z m-2852 36 c-2 -4 3 -12 12 -17
12 -7 8 -9 -17 -10 -21 0 -28 2 -20 7 8 5 11 13 8 18 -3 5 0 10 8 10 8 0 12
-4 9 -8z m-44 -29 c0 -11 -2 -20 -4 -20 -2 0 -6 9 -9 20 -3 11 -1 20 4 20 5 0
9 -9 9 -20z m1010 6 c0 -3 -4 -8 -10 -11 -5 -3 -10 -1 -10 4 0 6 5 11 10 11 6
0 10 -2 10 -4z m-44 -21 c-3 -9 1 -18 10 -22 15 -5 14 -7 -1 -16 -9 -5 -21 -5
-25 -1 -8 9 5 54 16 54 3 0 3 -7 0 -15z m-891 -35 c3 -5 1 -10 -4 -10 -6 0
-11 5 -11 10 0 6 2 10 4 10 3 0 8 -4 11 -10z m59 -6 c22 -8 21 -42 -1 -40 -10
0 -18 -5 -18 -13 0 -26 -22 -23 -27 4 -5 21 -2 25 20 25 21 0 22 2 12 15 -14
16 -10 18 14 9z m-199 -24 c3 -5 1 -10 -4 -10 -6 0 -11 5 -11 10 0 6 2 10 4
10 3 0 8 -4 11 -10z m1369 -15 c-4 -8 -1 -15 6 -15 6 0 8 -4 5 -10 -3 -5 -11
-10 -16 -10 -6 0 -7 5 -3 11 4 8 -1 9 -17 4 -24 -8 -24 -8 -5 14 22 24 38 28
30 6z m-94 -9 c0 -3 -4 -8 -10 -11 -5 -3 -10 -1 -10 4 0 6 5 11 10 11 6 0 10
-2 10 -4z m-250 -36 c0 -5 -5 -10 -11 -10 -5 0 -7 5 -4 10 3 6 8 10 11 10 2 0
4 -4 4 -10z m280 6 c0 -3 -4 -8 -10 -11 -5 -3 -10 -1 -10 4 0 6 5 11 10 11 6
0 10 -2 10 -4z m160 -46 c0 -5 -4 -10 -10 -10 -5 0 -10 5 -10 10 0 6 5 10 10
10 6 0 10 -4 10 -10z m-1103 -96 c-3 -3 -12 -4 -19 -1 -8 3 -5 6 6 6 11 1 17
-2 13 -5z m330 -54 c20 -8 21 -12 11 -42 -6 -18 -13 -27 -16 -20 -2 6 -11 12
-19 12 -11 0 -14 7 -9 23 4 19 0 26 -20 36 -14 6 -22 16 -19 22 5 7 14 5 28
-6 12 -8 32 -19 44 -25z m-377 -10 c-6 -12 -9 -28 -6 -36 7 -19 0 -18 -24 6
-24 24 -26 34 -6 27 10 -4 13 -1 9 9 -4 10 0 12 11 8 10 -4 16 -1 16 7 0 7 3
10 6 7 3 -4 0 -16 -6 -28z m500 -20 c0 -5 -2 -10 -4 -10 -3 0 -8 5 -11 10 -3
6 -1 10 4 10 6 0 11 -4 11 -10z m-360 -20 c0 -5 -2 -10 -4 -10 -3 0 -8 5 -11
10 -3 6 -1 10 4 10 6 0 11 -4 11 -10z m160 -24 c0 -14 -14 -36 -22 -36 -6 0
-6 6 1 14 9 11 9 15 -1 19 -8 4 -7 6 5 6 9 1 17 -1 17 -3z m170 -26 c0 -5 -4
-10 -10 -10 -5 0 -10 5 -10 10 0 6 5 10 10 10 6 0 10 -4 10 -10z m-152 -35 c0
-13 -4 -22 -8 -20 -5 3 -15 -2 -23 -10 -9 -8 -19 -15 -23 -15 -5 0 -3 5 3 11
6 6 9 18 6 25 -3 9 2 14 17 14 11 0 18 5 15 10 -3 6 -2 10 3 10 5 0 10 -11 10
-25z m137 5 c3 -5 1 -10 -4 -10 -6 0 -11 5 -11 10 0 6 2 10 4 10 3 0 8 -4 11
-10z m-240 -40 c-3 -5 -11 -10 -16 -10 -6 0 -7 5 -4 10 3 6 11 10 16 10 6 0 7
-4 4 -10z m-145 -90 c0 -5 -5 -10 -11 -10 -5 0 -7 5 -4 10 3 6 8 10 11 10 2 0
4 -4 4 -10z m-10 -60 c0 -5 -5 -10 -11 -10 -5 0 -7 5 -4 10 3 6 8 10 11 10 2
0 4 -4 4 -10z m2770 -42 c0 -4 -7 -8 -15 -8 -8 0 -15 4 -15 9 0 5 -3 18 -7 28
-6 17 -5 17 15 -1 12 -11 22 -23 22 -28z m-2749 -88 c18 0 8 -17 -16 -28 -15
-7 -25 -8 -25 -2 0 6 5 10 11 10 8 0 7 6 -2 17 -12 15 -12 16 4 10 10 -4 23
-7 28 -7z m66 -84 c0 -8 -6 -12 -15 -9 -11 5 -11 7 0 14 7 5 13 9 14 9 0 0 1
-6 1 -14z m-32 -26 c-11 -5 -14 -9 -7 -9 7 -1 10 -5 7 -11 -3 -5 -1 -10 4 -10
6 0 11 -4 11 -10 0 -21 -28 -9 -32 15 -6 28 -1 35 21 34 12 0 11 -3 -4 -9z
m-25 -70 c0 -11 5 -20 11 -20 5 0 8 4 5 9 -3 5 3 11 14 14 18 4 18 3 5 -17 -9
-13 -12 -26 -8 -31 5 -5 -3 -1 -16 8 -23 16 -37 57 -19 57 4 0 8 -9 8 -20z
m2943 -38 c-3 -12 -9 -19 -14 -16 -5 3 -4 14 2 25 13 26 20 21 12 -9z m47 -52
c0 -5 -2 -10 -4 -10 -3 0 -8 5 -11 10 -3 6 -1 10 4 10 6 0 11 -4 11 -10z
m-2972 -245 c-6 -14 -13 -23 -15 -21 -5 5 15 46 22 46 3 0 -1 -11 -7 -25z
m-78 -54 c0 -14 -29 -21 -36 -9 -4 7 -3 8 4 4 7 -4 12 -2 12 3 0 6 5 11 10 11
6 0 10 -4 10 -9z m3160 -172 c0 -24 -23 -21 -28 4 -2 10 3 17 12 17 10 0 16
-9 16 -21z m-95 -138 c-3 -6 -11 -11 -17 -11 -6 0 -6 6 2 15 14 17 26 13 15
-4z m-31 -18 c10 -26 0 -25 -18 1 -13 20 -13 24 -2 20 8 -3 17 -13 20 -21z
m58 -93 c8 0 20 6 27 13 11 10 11 8 2 -11 -7 -12 -16 -20 -22 -16 -5 3 -16 0
-24 -6 -8 -7 -16 -9 -16 -4 -1 5 -3 20 -4 33 -2 22 -1 23 10 8 7 -9 19 -17 27
-17z m-103 -22 c8 3 11 0 7 -7 -10 -16 -43 -14 -50 4 -4 12 -2 13 12 7 9 -5
23 -7 31 -4z m46 -14 c-20 -31 -16 -37 16 -26 32 11 59 4 52 -14 -7 -18 -23
-18 -23 0 0 12 -6 13 -30 5 -33 -12 -36 -19 -18 -37 13 -13 8 -22 -14 -26 -7
-1 -18 -5 -24 -9 -7 -4 -14 2 -17 15 -8 28 3 45 15 24 16 -29 26 -17 18 21 -9
39 -5 57 11 48 5 -4 9 1 9 9 0 9 5 16 11 16 7 0 5 -10 -6 -26z m151 -8 c1 -7
-6 -18 -16 -24 -16 -10 -17 -8 -7 18 11 29 19 31 23 6z m-5059 -23 c-3 -10 -5
-4 -5 12 0 17 2 24 5 18 2 -7 2 -21 0 -30z m4703 1 c0 -8 -5 -12 -10 -9 -6 4
-8 11 -5 16 9 14 15 11 15 -7z m373 -26 c7 -22 -4 -46 -28 -62 -22 -14 -23
-14 -21 9 0 13 6 23 11 22 6 -1 11 5 11 13 3 27 4 30 13 30 5 0 11 -6 14 -12z
m-58 -8 c3 -5 1 -10 -4 -10 -6 0 -11 5 -11 10 0 6 2 10 4 10 3 0 8 -4 11 -10z
m122 -6 c-3 -3 -12 -4 -19 -1 -8 3 -5 6 6 6 11 1 17 -2 13 -5z m-307 -36 c0
-6 -7 -5 -15 2 -8 7 -15 17 -15 22 0 6 7 5 15 -2 8 -7 15 -17 15 -22z m274 6
c24 -9 20 -44 -4 -44 -21 0 -28 19 -7 21 10 0 10 2 0 6 -7 2 -13 9 -13 14 0
11 3 11 24 3z m-306 -56 c-3 -7 -15 -15 -27 -16 -20 -3 -22 -2 -10 12 17 18
42 21 37 4z m-191 -64 c-3 -3 -12 -4 -19 -1 -8 3 -5 6 6 6 11 1 17 -2 13 -5z
m418 -13 c-3 -6 -14 -11 -23 -11 -13 0 -13 2 4 14 21 15 30 14 19 -3z m75 -5
c0 -2 -7 -7 -16 -10 -8 -3 -12 -2 -9 4 6 10 25 14 25 6z m-297 -90 c-10 -5
-18 -4 -23 4 -4 7 -14 11 -22 8 -9 -4 -14 1 -14 13 0 21 9 24 36 9 16 -9 19
-8 14 7 -3 10 1 7 10 -7 13 -22 13 -26 -1 -34z m-273 24 c0 -5 -2 -10 -4 -10
-3 0 -8 5 -11 10 -3 6 -1 10 4 10 6 0 11 -4 11 -10z m410 6 c0 -2 -7 -6 -15
-10 -8 -3 -15 -1 -15 4 0 6 7 10 15 10 8 0 15 -2 15 -4z m-259 -15 c-8 -5 -11
-16 -6 -30 4 -13 2 -21 -5 -21 -6 0 -9 4 -6 9 4 5 1 11 -5 13 -16 5 1 38 20
38 13 0 13 -2 2 -9z m154 -41 c19 -8 19 -9 -2 -9 -12 -1 -25 4 -28 9 -7 12 2
12 30 0z m-297 -12 c-2 -6 -10 -14 -16 -16 -7 -2 -10 2 -6 12 7 18 28 22 22 4z
m53 3 c-10 -7 -11 -13 -2 -27 8 -14 11 -15 11 -4 0 12 4 11 15 -4 18 -24 10
-39 -18 -31 -20 5 -20 5 -5 -8 10 -8 13 -18 9 -26 -8 -13 -17 4 -27 54 -3 11
-9 21 -14 23 -13 5 12 31 30 31 12 1 13 -1 1 -8z m309 -7 c0 -8 -19 -13 -24
-6 -3 5 1 9 9 9 8 0 15 -2 15 -3z m-213 -10 c-9 -9 43 -53 71 -60 12 -4 22
-13 22 -20 0 -8 11 -19 25 -24 14 -5 25 -14 25 -19 0 -16 -29 -33 -47 -28 -16
4 -15 6 4 12 20 6 21 9 7 22 -8 9 -18 13 -21 9 -3 -3 -18 3 -33 14 -16 11 -33
20 -40 20 -7 0 -10 7 -6 18 6 16 5 16 -8 -1 -13 -16 -14 -16 -27 0 -10 11 -10
14 -1 9 17 -10 27 21 12 39 -10 12 -9 15 5 15 10 0 15 -3 12 -6z m138 -4 c3
-6 -1 -7 -9 -4 -18 7 -21 14 -7 14 6 0 13 -4 16 -10z m-294 -39 c-6 -10 -7
-21 -3 -25 3 -4 -1 -4 -11 0 -20 7 -21 16 -5 32 18 18 30 14 19 -7z m24 -51
c-3 -6 -12 -10 -20 -10 -10 0 -11 5 -2 24 10 20 14 22 20 10 4 -8 5 -19 2 -24z
m171 -12 c10 -13 12 -17 4 -10 -8 6 -22 12 -33 12 -10 0 -15 5 -12 10 9 15 20
12 41 -12z m-226 -7 c0 -4 -3 -11 -7 -14 -8 -9 -34 13 -28 24 6 9 35 1 35 -10z
m149 -3 c16 0 20 -3 11 -8 -21 -13 -1 -30 32 -26 18 2 38 -2 45 -10 8 -7 20
-11 28 -8 8 4 15 1 15 -5 0 -11 -13 -15 -39 -12 -7 2 -10 -2 -7 -7 9 -14 -19
-33 -38 -26 -9 3 -16 12 -16 18 0 18 -45 58 -55 49 -4 -5 -6 -1 -2 8 4 12 1
16 -13 12 -12 -3 -16 -11 -12 -25 4 -16 1 -19 -14 -16 -10 2 -20 11 -22 21 -5
26 16 46 41 40 12 -3 33 -5 46 -5z m-174 -28 c8 -13 -5 -13 -25 0 -13 8 -13
10 2 10 9 0 20 -4 23 -10z m280 0 c3 -5 1 -10 -4 -10 -6 0 -11 5 -11 10 0 6 2
10 4 10 3 0 8 -4 11 -10z m-4520 -20 c-10 -11 -20 -18 -23 -15 -7 6 18 35 31
35 5 0 2 -9 -8 -20z m4199 12 c3 -5 -1 -9 -9 -9 -8 0 -15 4 -15 9 0 4 4 8 9 8
6 0 12 -4 15 -8z m136 -28 c14 -8 17 -13 7 -10 -10 3 -25 6 -33 6 -8 0 -14 5
-14 10 0 14 10 12 40 -6z m56 7 c-4 -5 0 -11 6 -14 10 -3 10 -8 2 -17 -9 -9
-14 -9 -19 0 -7 11 0 40 10 40 4 0 4 -4 1 -9z m-146 -25 c0 -3 -4 -8 -10 -11
-5 -3 -10 -1 -10 4 0 6 5 11 10 11 6 0 10 -2 10 -4z m136 -15 c5 -5 20 -12 34
-16 19 -5 21 -4 10 4 -8 5 -11 13 -7 18 7 7 26 -13 27 -28 0 -11 -33 -20 -39
-12 -9 13 -58 15 -66 4 -7 -13 -35 -15 -35 -3 0 7 49 41 61 42 3 0 9 -4 15 -9z
m-124 -23 c-7 -7 -12 -8 -12 -2 0 14 12 26 19 19 2 -3 -1 -11 -7 -17z m108
-32 c0 -2 -7 -7 -16 -10 -8 -3 -12 -2 -9 4 6 10 25 14 25 6z m-59 -43 c-8 -15
-10 -15 -11 -2 0 17 10 32 18 25 2 -3 -1 -13 -7 -23z m76 -9 c-3 -3 -12 -4
-19 -1 -8 3 -5 6 6 6 11 1 17 -2 13 -5z m253 -66 c0 -19 -2 -20 -10 -8 -13 19
-13 30 0 30 6 0 10 -10 10 -22z m-4343 -110 c-3 -8 -6 -5 -6 6 -1 11 2 17 5
13 3 -3 4 -12 1 -19z m3503 2 c0 -5 -10 -10 -22 -10 -19 0 -20 2 -8 10 19 13
30 13 30 0z m200 -40 c8 -5 11 -12 7 -16 -4 -4 -15 0 -24 9 -18 18 -8 23 17 7z
m-3705 -40 c-3 -5 -1 -10 4 -10 6 0 11 -4 11 -10 0 -5 -7 -7 -15 -4 -17 7 -21
34 -4 34 5 0 7 -4 4 -10z m505 -21 c0 -10 -4 -19 -10 -19 -5 0 -9 11 -8 24 3
28 18 24 18 -5z m3002 -9 c3 -16 1 -30 -4 -30 -4 0 -8 3 -8 8 0 4 -3 17 -6 30
-4 12 -2 22 4 22 5 0 12 -13 14 -30z m-3777 10 c-3 -5 -11 -10 -16 -10 -6 0
-7 5 -4 10 3 6 11 10 16 10 6 0 7 -4 4 -10z m3718 -10 c-3 -12 -8 -19 -11 -16
-5 6 5 36 12 36 2 0 2 -9 -1 -20z m-3653 0 c0 -5 -4 -10 -10 -10 -5 0 -10 5
-10 10 0 6 5 10 10 10 6 0 10 -4 10 -10z m3815 -10 c3 -5 1 -10 -4 -10 -6 0
-11 5 -11 10 0 6 2 10 4 10 3 0 8 -4 11 -10z m690 -10 c-3 -5 1 -21 10 -34 16
-23 15 -27 0 -48 -10 -13 -15 -16 -12 -6 3 9 3 19 -1 23 -4 3 -7 14 -7 23 0 9
-5 16 -10 15 -6 -1 -12 7 -12 18 -1 13 5 19 18 19 11 0 17 -4 14 -10z m-4535
-14 c0 -3 -4 -8 -10 -11 -5 -3 -10 -1 -10 4 0 6 5 11 10 11 6 0 10 -2 10 -4z
m640 -6 c0 -5 -2 -10 -4 -10 -3 0 -8 5 -11 10 -3 6 -1 10 4 10 6 0 11 -4 11
-10z m3252 -40 c-5 -35 -12 -38 -29 -10 -11 16 -10 21 5 29 26 16 29 13 24
-19z m-3812 -11 c0 -11 -4 -17 -10 -14 -5 3 -10 13 -10 21 0 8 5 14 10 14 6 0
10 -9 10 -21z m4613 -57 c10 27 40 -20 45 -69 2 -26 10 -66 18 -88 7 -21 11
-41 8 -44 -8 -8 -33 23 -36 44 -2 12 -15 41 -30 65 -14 25 -33 61 -42 80 -8
19 -23 46 -32 60 -9 14 2 6 24 -18 25 -27 42 -38 45 -30z m-4047 21 c-10 -10
-19 5 -10 18 6 11 8 11 12 0 2 -7 1 -15 -2 -18z m270 -60 c-11 -11 -17 4 -9
23 7 18 8 18 11 1 2 -10 1 -21 -2 -24z m1976 -65 c-7 -7 -12 -8 -12 -2 0 14
12 26 19 19 2 -3 -1 -11 -7 -17z m-2962 -3 c0 -8 -4 -15 -10 -15 -5 0 -7 7 -4
15 4 8 8 15 10 15 2 0 4 -7 4 -15z m3140 -5 c0 -5 -4 -10 -10 -10 -5 0 -10 5
-10 10 0 6 5 10 10 10 6 0 10 -4 10 -10z m-1660 -20 c0 -5 -4 -10 -10 -10 -5
0 -10 5 -10 10 0 6 5 10 10 10 6 0 10 -4 10 -10z m-960 -25 c-15 -9 -19 -15
-10 -15 12 0 11 -3 -3 -11 -10 -6 -20 -9 -23 -7 -8 9 28 48 44 48 12 -1 10 -5
-8 -15z m3883 -25 c10 -17 13 -30 8 -30 -6 0 -11 5 -11 10 0 6 -7 10 -15 10
-8 0 -15 9 -15 20 0 29 13 25 33 -10z m301 -14 c-3 -8 -1 -17 5 -21 20 -12 12
-26 -8 -16 -27 15 -34 51 -10 51 12 0 16 -5 13 -14z m-4755 -42 c1 -7 -6 -14
-14 -18 -11 -4 -14 2 -13 22 2 38 10 49 19 26 4 -10 8 -24 8 -30z m74 24 c-13
-12 -25 -19 -29 -15 -10 10 16 37 34 37 13 0 12 -4 -5 -22z m4879 -38 c8 -1 7
-5 -5 -14 -16 -13 -16 -14 9 -20 20 -5 23 -10 15 -20 -6 -7 -7 -16 -3 -21 4
-4 -3 -2 -15 4 -27 14 -47 47 -34 55 5 3 7 15 4 26 -3 11 -9 17 -14 14 -11 -6
-11 -1 -3 21 6 14 10 11 20 -14 7 -17 19 -31 26 -31z m-3200 33 c0 -10 1 -24
1 -30 -1 -7 8 -13 18 -13 11 0 19 -4 19 -10 0 -5 -6 -9 -12 -7 -8 1 -12 -7
-10 -20 4 -28 -30 -47 -69 -39 -24 4 -31 1 -46 -25 -14 -23 -23 -29 -40 -24
-12 3 -25 1 -28 -5 -3 -5 -12 -10 -19 -10 -8 0 -12 14 -10 46 2 33 11 54 33
79 16 18 32 31 35 28 3 -4 6 -1 6 5 0 7 9 12 20 12 22 0 25 -12 10 -40 -6 -11
-6 -21 -1 -24 15 -10 34 23 29 49 -4 17 0 29 11 35 26 15 51 11 53 -7z m108
-5 c0 -18 -2 -20 -9 -8 -6 8 -7 18 -5 22 9 14 14 9 14 -14z m2220 -21 c0 -18
-2 -19 -10 -7 -13 20 -13 43 0 35 6 -3 10 -16 10 -28z m-1513 5 c8 -5 9 -12 2
-22 -8 -13 -10 -13 -19 0 -18 27 -9 39 17 22z m136 -29 c-3 -7 -9 -13 -15 -13
-5 0 -6 5 -3 10 3 6 1 10 -6 10 -8 0 -8 4 1 15 15 18 32 2 23 -22z m-385 -54
c-3 -8 -7 -3 -11 10 -4 17 -3 21 5 13 5 -5 8 -16 6 -23z m222 26 c0 -2 -10
-13 -22 -25 -16 -15 -24 -17 -30 -8 -11 18 -10 30 1 23 5 -3 12 -1 16 5 6 10
35 14 35 5z m125 -13 c-3 -3 -11 0 -18 7 -9 10 -8 11 6 5 10 -3 15 -9 12 -12z
m-569 -19 c-10 -10 -19 5 -10 18 6 11 8 11 12 0 2 -7 1 -15 -2 -18z m600 11
c-3 -9 -6 -18 -6 -20 0 -3 -4 -3 -10 1 -11 7 -2 35 12 35 6 0 7 -7 4 -16z
m-226 -4 c0 -5 -2 -10 -4 -10 -3 0 -8 5 -11 10 -3 6 -1 10 4 10 6 0 11 -4 11
-10z m270 -10 c0 -5 -7 -10 -15 -10 -8 0 -15 -5 -15 -12 0 -6 -3 -9 -6 -5 -11
10 4 37 21 37 8 0 15 -4 15 -10z m2190 -70 c0 -5 -2 -10 -4 -10 -3 0 -8 5 -11
10 -3 6 -1 10 4 10 6 0 11 -4 11 -10z m-820 -30 c0 -5 -2 -10 -4 -10 -3 0 -8
5 -11 10 -3 6 -1 10 4 10 6 0 11 -4 11 -10z m835 0 c3 -5 1 -10 -4 -10 -6 0
-11 5 -11 10 0 6 2 10 4 10 3 0 8 -4 11 -10z m-2597 -25 c-3 -3 -9 2 -12 12
-6 14 -5 15 5 6 7 -7 10 -15 7 -18z m-23 -15 c-3 -5 6 -17 20 -26 20 -13 23
-19 13 -25 -10 -7 -9 -9 3 -9 15 0 16 -9 10 -74 -1 -6 -6 -5 -12 1 -8 8 -8 17
-1 29 10 18 7 24 -36 71 -21 23 -22 43 -1 43 6 0 8 -4 4 -10z m2015 -41 c0 -6
-4 -7 -10 -4 -5 3 -10 11 -10 16 0 6 5 7 10 4 6 -3 10 -11 10 -16z m-300 -15
c0 -17 -22 -14 -28 4 -2 7 3 12 12 12 9 0 16 -7 16 -16z m-4020 -139 c0 -5 -5
-3 -10 5 -5 8 -10 20 -10 25 0 6 5 3 10 -5 5 -8 10 -19 10 -25z m44 10 c-4 -8
-8 -15 -10 -15 -2 0 -4 7 -4 15 0 8 4 15 10 15 5 0 7 -7 4 -15z m4543 -191
c-9 -9 -28 6 -21 18 4 6 10 6 17 -1 6 -6 8 -13 4 -17z m-529 -59 c-3 -3 -9 2
-12 12 -6 14 -5 15 5 6 7 -7 10 -15 7 -18z m126 -17 c3 -17 6 -42 6 -57 -1
-19 -6 -11 -20 29 -23 66 -24 71 -6 64 8 -3 17 -19 20 -36z m-3684 -173 c-7
-8 -17 -12 -23 -8 -6 4 -3 9 9 14 27 11 28 11 14 -6z"/>
<path d="M2865 5600 c3 -5 12 -10 20 -10 8 0 17 5 20 10 4 6 -5 10 -20 10 -15
0 -24 -4 -20 -10z"/>
<path d="M3183 5550 c1 -11 5 -20 9 -20 4 0 8 9 8 20 0 11 -4 20 -9 20 -6 0
-9 -9 -8 -20z"/>
<path d="M2950 5511 c0 -6 4 -13 10 -16 6 -3 7 1 4 9 -7 18 -14 21 -14 7z"/>
<path d="M2356 5412 c-3 -6 1 -13 10 -16 23 -9 28 -2 10 13 -8 7 -17 8 -20 3z"/>
<path d="M3067 5413 c-12 -11 -8 -23 7 -23 7 0 19 7 26 15 10 12 9 15 -7 15
-11 0 -23 -3 -26 -7z"/>
<path d="M2980 5400 c0 -5 5 -10 10 -10 6 0 10 5 10 10 0 6 -4 10 -10 10 -5 0
-10 -4 -10 -10z"/>
<path d="M2910 5369 c0 -19 6 -23 43 -27 37 -3 72 12 62 28 -7 11 -105 10
-105 -1z"/>
<path d="M3516 5344 c-9 -24 -7 -28 9 -14 17 14 20 30 6 30 -5 0 -12 -7 -15
-16z"/>
<path d="M2535 5340 c-3 -5 -1 -10 4 -10 6 0 11 5 11 10 0 6 -2 10 -4 10 -3 0
-8 -4 -11 -10z"/>
<path d="M2845 5299 c-10 -15 3 -25 16 -12 7 7 7 13 1 17 -6 3 -14 1 -17 -5z"/>
<path d="M2798 5283 c7 -3 16 -2 19 1 4 3 -2 6 -13 5 -11 0 -14 -3 -6 -6z"/>
<path d="M3288 5273 c7 -3 16 -2 19 1 4 3 -2 6 -13 5 -11 0 -14 -3 -6 -6z"/>
<path d="M3470 5255 c-7 -9 -10 -18 -7 -22 4 -3 2 -12 -4 -20 -6 -7 -9 -22 -6
-33 4 -14 0 -20 -12 -20 -9 0 -22 -9 -28 -19 -15 -24 6 -46 36 -38 22 5 34
-14 24 -40 -4 -11 -3 -14 5 -9 7 4 12 18 12 31 0 17 4 23 14 19 7 -3 20 1 28
9 8 8 24 18 36 21 12 4 20 12 17 17 -9 14 -22 11 -41 -8 -13 -13 -19 -14 -22
-5 -2 7 -8 10 -12 7 -15 -9 -27 27 -26 78 1 26 1 47 0 47 -1 0 -7 -7 -14 -15z"/>
<path d="M1840 5230 c-8 -5 -12 -12 -9 -15 8 -8 39 5 39 16 0 11 -11 11 -30
-1z"/>
<path d="M4335 5230 c-3 -5 1 -10 10 -10 9 0 13 5 10 10 -3 6 -8 10 -10 10 -2
0 -7 -4 -10 -10z"/>
<path d="M2450 5139 c0 -46 4 -68 10 -64 6 4 8 16 4 28 -3 12 -3 19 1 15 4 -4
16 2 26 13 22 25 12 59 -19 70 -21 8 -22 6 -22 -62z"/>
<path d="M3598 5193 c6 -2 18 -2 25 0 6 3 1 5 -13 5 -14 0 -19 -2 -12 -5z"/>
<path d="M1970 5170 l-25 -20 28 0 c15 0 27 2 27 4 0 2 3 11 6 20 8 21 -6 20
-36 -4z"/>
<path d="M2378 5158 c-3 -27 0 -38 9 -38 14 0 16 24 4 55 -7 16 -9 13 -13 -17z"/>
<path d="M2555 5130 c3 -5 8 -10 11 -10 2 0 4 5 4 10 0 6 -5 10 -11 10 -5 0
-7 -4 -4 -10z"/>
<path d="M2515 5120 c-3 -5 2 -10 12 -10 11 0 14 -3 7 -8 -22 -14 -25 -60 -6
-79 11 -10 24 -27 30 -38 6 -11 12 -14 12 -7 0 6 12 13 28 13 20 1 22 2 7 6
-39 10 -62 43 -30 43 8 0 14 -6 13 -12 -2 -7 6 -13 17 -13 11 0 20 7 20 15 0
8 8 16 18 18 21 4 23 -21 2 -38 -8 -7 -15 -18 -15 -25 0 -8 -6 -16 -12 -18 -8
-3 -6 -6 5 -6 9 -1 17 3 17 9 0 5 6 7 14 4 10 -4 16 6 21 36 4 23 5 43 3 45
-16 15 -102 53 -112 49 -7 -3 -16 2 -19 10 -7 18 -23 21 -32 6z"/>
<path d="M2242 5080 c0 -14 2 -19 5 -12 2 6 2 18 0 25 -3 6 -5 1 -5 -13z"/>
<path d="M3605 5090 c-3 -5 1 -10 9 -10 9 0 16 5 16 10 0 6 -4 10 -9 10 -6 0
-13 -4 -16 -10z"/>
<path d="M2196 5074 c-3 -8 0 -22 8 -29 12 -12 15 -12 20 0 6 17 -2 45 -14 45
-4 0 -11 -7 -14 -16z"/>
<path d="M3775 5060 c4 -6 11 -8 16 -5 14 9 11 15 -7 15 -8 0 -12 -5 -9 -10z"/>
<path d="M3210 5050 c-8 -5 -24 -10 -36 -10 -11 0 -34 -6 -50 -14 -23 -12 -38
-12 -77 -4 -40 10 -53 9 -75 -4 -15 -8 -33 -13 -41 -10 -8 3 -11 0 -7 -6 3 -6
2 -13 -3 -16 -5 -3 -11 1 -15 9 -7 18 -32 20 -39 2 -5 -12 9 -17 61 -21 12 0
22 -4 22 -9 0 -4 25 -6 55 -4 30 2 59 -1 65 -7 6 -6 16 -11 23 -11 21 0 19
-32 -2 -38 -18 -4 -19 -8 -8 -31 12 -26 49 -37 46 -13 -4 30 3 45 26 55 30 14
32 33 5 50 -29 18 -25 26 25 53 25 13 45 27 45 31 0 10 -2 10 -20 -2z"/>
<path d="M3746 5047 c3 -10 9 -15 12 -12 3 3 0 11 -7 18 -10 9 -11 8 -5 -6z"/>
<path d="M2700 5011 c0 -11 4 -21 9 -21 18 0 21 18 6 30 -13 10 -15 9 -15 -9z"/>
<path d="M3401 5011 c-12 -12 -18 -27 -14 -37 5 -13 10 -12 31 11 31 34 15 58
-17 26z"/>
<path d="M2745 5010 c3 -5 11 -10 16 -10 6 0 7 5 4 10 -3 6 -11 10 -16 10 -6
0 -7 -4 -4 -10z"/>
<path d="M3296 4953 c-6 -14 -5 -15 5 -6 7 7 10 15 7 18 -3 3 -9 -2 -12 -12z"/>
<path d="M3726 4961 c-4 -7 -5 -15 -2 -18 9 -9 19 4 14 18 -4 11 -6 11 -12 0z"/>
<path d="M2660 4949 c0 -5 5 -7 10 -4 6 3 10 8 10 11 0 2 -4 4 -10 4 -5 0 -10
-5 -10 -11z"/>
<path d="M2725 4952 c6 -5 32 -12 60 -16 30 -4 46 -3 40 3 -6 5 -32 13 -60 16
-33 5 -47 4 -40 -3z"/>
<path d="M3425 4930 c-3 -6 1 -7 9 -4 18 7 21 14 7 14 -6 0 -13 -4 -16 -10z"/>
<path d="M3373 4923 c-7 -2 -9 -12 -6 -20 5 -13 2 -15 -11 -10 -10 4 -15 3
-11 -3 8 -12 25 -13 44 -1 16 10 2 40 -16 34z"/>
<path d="M3205 4886 l-30 -14 33 1 c20 0 32 5 32 14 0 15 3 15 -35 -1z"/>
<path d="M2885 4878 c-11 -6 -24 -17 -28 -25 -4 -7 -15 -13 -22 -13 -8 0 -15
-5 -15 -11 0 -5 4 -8 9 -4 5 3 12 1 16 -5 4 -6 11 -8 16 -5 15 10 48 -5 43
-18 -3 -9 14 -12 60 -12 36 0 68 4 72 8 4 4 -11 7 -34 7 -54 0 -53 16 1 39
l42 18 -53 1 c-42 1 -54 -2 -64 -18 -20 -31 -31 -24 -25 15 3 19 5 35 4 35 -1
0 -11 -6 -22 -12z"/>
<path d="M3400 4845 c0 -9 12 -28 26 -42 22 -22 28 -24 40 -11 19 19 10 42
-22 57 -34 15 -44 14 -44 -4z"/>
<path d="M3498 4849 c-22 -12 -23 -29 -3 -29 8 0 15 5 15 10 0 6 3 9 8 8 4 -2
8 1 10 7 5 14 -10 16 -30 4z"/>
<path d="M3401 4794 c0 -11 3 -14 6 -6 3 7 2 16 -1 19 -3 4 -6 -2 -5 -13z"/>
<path d="M3050 4785 c0 -9 6 -12 15 -9 8 4 15 7 15 9 0 2 -7 5 -15 9 -9 3 -15
0 -15 -9z"/>
<path d="M2834 4760 c0 -11 5 -19 11 -17 5 2 10 10 10 17 0 7 -5 15 -10 17 -6
2 -11 -6 -11 -17z"/>
<path d="M2748 4749 c-20 -21 -12 -24 29 -8 22 8 24 12 13 19 -19 12 -22 12
-42 -11z"/>
<path d="M2897 4753 c3 -6 14 -14 26 -16 20 -4 19 -4 -3 -6 -30 -2 -62 -41
-50 -61 4 -7 6 -20 2 -28 -3 -10 0 -13 9 -10 8 3 13 15 12 27 -2 14 3 21 15
21 14 0 14 2 3 9 -12 7 -7 13 21 27 50 24 48 54 -3 51 -23 -1 -35 -6 -32 -14z"/>
<path d="M2870 4740 c0 -5 5 -10 10 -10 6 0 10 5 10 10 0 6 -4 10 -10 10 -5 0
-10 -4 -10 -10z"/>
<path d="M3105 4730 c3 -5 11 -10 16 -10 6 0 7 5 4 10 -3 6 -11 10 -16 10 -6
0 -7 -4 -4 -10z"/>
<path d="M3140 4731 c0 -4 11 -6 25 -3 14 2 25 6 25 8 0 2 -11 4 -25 4 -14 0
-25 -4 -25 -9z"/>
<path d="M3490 4729 c0 -5 5 -7 10 -4 6 3 10 8 10 11 0 2 -4 4 -10 4 -5 0 -10
-5 -10 -11z"/>
<path d="M2740 4710 c-8 -5 -11 -10 -7 -10 4 0 -1 -10 -13 -22 -27 -29 -25
-38 5 -36 19 2 25 8 25 25 0 12 5 25 10 28 12 7 13 25 3 25 -5 0 -15 -5 -23
-10z"/>
<path d="M2828 4708 c-2 -6 -19 -17 -38 -23 -19 -6 -29 -14 -24 -18 13 -7 76
25 82 41 2 7 -1 12 -6 12 -6 0 -12 -5 -14 -12z"/>
<path d="M2975 4690 c3 -5 8 -10 11 -10 2 0 4 5 4 10 0 6 -5 10 -11 10 -5 0
-7 -4 -4 -10z"/>
<path d="M3085 4680 c-3 -5 1 -10 10 -10 9 0 13 5 10 10 -3 6 -8 10 -10 10 -2
0 -7 -4 -10 -10z"/>
<path d="M2490 4623 c0 -4 5 -15 10 -23 8 -13 10 -13 10 2 0 9 -4 20 -10 23
-5 3 -10 3 -10 -2z"/>
<path d="M2950 4556 c0 -8 -6 -16 -12 -19 -7 -2 -10 -8 -6 -12 4 -4 25 1 47
12 44 22 44 33 -1 33 -17 0 -28 -5 -28 -14z"/>
<path d="M3000 4532 c0 -5 7 -13 16 -16 22 -8 24 -8 24 6 0 6 -3 8 -7 5 -3 -4
-12 -2 -20 4 -8 7 -13 8 -13 1z"/>
<path d="M2780 4510 c-8 -5 -12 -12 -9 -15 4 -3 12 1 19 10 14 17 11 19 -10 5z"/>
<path d="M2780 4430 c0 -5 5 -10 11 -10 5 0 7 5 4 10 -3 6 -8 10 -11 10 -2 0
-4 -4 -4 -10z"/>
<path d="M2713 4179 c24 -14 21 -36 -5 -42 -12 -4 -19 -9 -16 -13 4 -3 18 -4
31 -1 34 9 32 59 -3 63 -21 3 -22 2 -7 -7z"/>
<path d="M2685 4150 c-3 -5 -2 -10 4 -10 5 0 13 5 16 10 3 6 2 10 -4 10 -5 0
-13 -4 -16 -10z"/>
<path d="M2660 4013 c0 -5 7 -17 15 -27 12 -16 18 -17 27 -8 9 9 9 12 0 12 -7
0 -12 7 -12 15 0 8 -7 15 -15 15 -8 0 -15 -3 -15 -7z"/>
<path d="M5087 4779 c7 -7 15 -10 18 -7 3 3 -2 9 -12 12 -14 6 -15 5 -6 -5z"/>
<path d="M3825 4680 c-10 -11 -13 -20 -7 -20 7 0 12 5 12 10 0 6 10 15 23 20
14 6 16 9 6 9 -9 1 -24 -8 -34 -19z"/>
<path d="M5136 4645 c-3 -8 -2 -15 3 -15 5 0 14 7 21 15 10 12 10 15 -3 15 -8
0 -17 -7 -21 -15z"/>
<path d="M3785 4640 c-3 -5 -2 -10 4 -10 5 0 13 5 16 10 3 6 2 10 -4 10 -5 0
-13 -4 -16 -10z"/>
<path d="M4976 4545 c-3 -9 0 -15 9 -15 8 0 15 7 15 15 0 8 -4 15 -9 15 -5 0
-11 -7 -15 -15z"/>
<path d="M4936 4511 c-3 -5 1 -11 9 -15 9 -3 15 0 15 9 0 16 -16 20 -24 6z"/>
<path d="M5055 4300 c-8 -13 4 -32 16 -25 12 8 12 35 0 35 -6 0 -13 -4 -16
-10z"/>
<path d="M4159 4253 c-6 -7 -19 -13 -29 -13 -32 0 -120 -57 -120 -78 0 -5 -7
-13 -16 -16 -28 -11 -4 -26 42 -26 46 0 110 26 134 54 7 10 20 14 31 11 12 -4
26 1 37 11 16 17 16 17 0 11 -10 -3 -20 -2 -23 3 -4 6 3 10 14 10 18 0 20 3 9
19 -14 24 -64 33 -79 14z"/>
<path d="M5004 4244 c-17 -14 -17 -15 -1 -10 10 3 23 6 28 6 5 0 9 5 9 10 0
14 -13 12 -36 -6z"/>
<path d="M4965 4230 c-3 -5 -1 -10 4 -10 6 0 11 5 11 10 0 6 -2 10 -4 10 -3 0
-8 -4 -11 -10z"/>
<path d="M1590 4033 c-46 -8 -205 -65 -250 -91 -47 -26 -135 -110 -184 -175
-32 -41 -42 -87 -24 -99 9 -5 9 -13 1 -30 -18 -35 -26 -78 -29 -138 -2 -30 -6
-70 -10 -88 -4 -19 -2 -38 5 -46 7 -8 13 -51 15 -96 2 -65 6 -84 19 -92 9 -5
17 -21 17 -36 0 -36 21 -74 47 -87 12 -6 42 -34 67 -62 53 -59 144 -113 230
-138 44 -13 85 -16 165 -13 96 3 112 7 176 38 39 19 76 33 84 31 7 -1 10 2 6
8 -3 6 -1 11 4 11 6 0 11 7 11 15 0 8 5 15 11 15 17 0 94 80 114 119 30 58 47
133 50 212 1 42 5 82 9 88 4 6 4 11 -1 11 -4 0 -8 27 -8 59 -1 32 -6 66 -13
74 -7 8 -12 19 -11 23 5 20 -15 91 -33 116 -11 16 -17 32 -14 36 9 15 -63 142
-112 198 -43 49 -74 69 -177 115 -11 5 -38 11 -60 13 -22 3 -40 5 -40 6 0 4
-43 6 -65 3z m40 -79 c0 -8 -4 -12 -10 -9 -5 3 -10 10 -10 16 0 5 5 9 10 9 6
0 10 -7 10 -16z m-65 -4 c-3 -5 -11 -10 -16 -10 -6 0 -7 5 -4 10 3 6 11 10 16
10 6 0 7 -4 4 -10z m-75 -8 c0 -5 -20 -13 -45 -19 -50 -11 -51 -4 -2 14 40 14
47 15 47 5z m75 -72 c9 -15 -13 -40 -35 -40 -25 0 -126 -84 -106 -88 12 -3 14
-12 10 -40 -3 -20 -9 -41 -14 -47 -4 -5 -8 -36 -9 -68 -1 -48 -5 -63 -23 -79
-13 -11 -17 -17 -10 -13 10 5 11 0 6 -19 -4 -18 -2 -26 7 -26 9 0 10 -3 2 -11
-12 -12 -5 -61 8 -53 5 3 7 -1 4 -8 -3 -7 12 -47 33 -88 49 -99 109 -149 224
-185 76 -24 93 -26 196 -21 132 7 135 3 68 -70 -137 -153 -388 -162 -573 -21
-83 64 -119 140 -147 312 -17 109 -7 243 24 313 31 69 96 165 127 188 77 57
191 92 208 64z m-259 -22 c5 -7 3 -8 -6 -3 -7 4 -16 2 -21 -6 -4 -7 -11 -10
-14 -7 -10 10 4 28 20 28 8 0 17 -5 21 -12z m405 -84 l22 -23 -26 -6 c-32 -8
-60 -36 -30 -30 10 2 25 6 34 10 22 8 34 -12 19 -30 -9 -11 -9 -15 -1 -15 18
0 13 -28 -9 -50 -30 -30 -99 -27 -129 4 -31 33 -40 106 -17 141 14 21 23 24
66 24 37 -1 54 -7 71 -25z m-301 -264 c0 -5 -2 -10 -4 -10 -3 0 -8 5 -11 10
-3 6 -1 10 4 10 6 0 11 -4 11 -10z m84 -156 c3 -9 6 -23 6 -32 -1 -12 -5 -10
-15 8 -8 14 -14 28 -15 33 0 13 18 7 24 -9z m507 -163 c-63 -55 -201 -73 -306
-41 -22 7 -52 13 -67 14 -15 0 -30 6 -32 13 -3 8 1 10 11 6 11 -4 14 -2 9 5
-11 18 27 15 97 -9 82 -28 182 -22 253 15 64 33 77 32 35 -3z"/>
<path d="M5457 3943 c-4 -3 -7 -13 -7 -22 1 -13 3 -13 11 2 11 19 8 33 -4 20z"/>
<path d="M3530 3880 c-63 -23 -144 -75 -205 -131 -49 -45 -108 -159 -124 -239
-6 -30 -13 -68 -17 -85 -21 -104 -23 -136 -14 -223 6 -52 14 -101 19 -109 4
-9 6 -24 4 -33 -3 -10 0 -21 6 -24 6 -4 11 -16 11 -26 0 -45 161 -249 197
-250 4 0 19 -9 33 -20 14 -11 33 -20 43 -20 10 0 25 -7 34 -15 8 -8 19 -13 24
-9 6 3 16 1 23 -5 26 -22 200 -37 241 -20 18 7 18 8 2 8 -10 1 -25 8 -33 16
-10 10 -36 15 -72 16 -95 0 -145 10 -187 36 -38 23 -38 24 -10 18 38 -8 94
-14 216 -21 82 -5 108 -3 167 15 89 28 124 46 198 103 72 55 117 104 143 156
11 21 27 44 35 51 14 12 16 10 16 -16 0 -44 -87 -143 -182 -208 -32 -21 -58
-42 -58 -47 0 -11 27 -10 51 2 14 8 19 7 19 -2 0 -7 17 6 39 29 21 23 41 40
44 37 3 -3 14 14 25 38 11 24 29 52 40 64 11 12 29 41 40 65 17 36 18 45 6 47
-16 4 -14 74 3 108 6 10 8 43 6 72 -2 34 0 51 7 47 13 -8 13 -125 0 -125 -5 0
-10 -21 -10 -47 l1 -48 22 40 c19 35 21 55 21 165 0 69 -5 144 -10 167 -16 59
-60 142 -100 183 -19 20 -34 40 -34 46 0 14 -39 36 -52 28 -6 -4 -8 -3 -5 3 6
10 -19 28 -35 25 -4 -1 -12 7 -18 18 -6 11 -54 41 -107 66 -86 41 -107 47
-222 60 -161 18 -175 17 -241 -6z m415 -100 c3 -5 2 -10 -4 -10 -5 0 -13 5
-16 10 -3 6 -2 10 4 10 5 0 13 -4 16 -10z m38 -96 c17 -9 58 -42 90 -73 124
-118 156 -257 107 -452 -39 -153 -110 -248 -231 -309 -50 -26 -179 -52 -222
-45 -232 37 -287 58 -287 110 0 22 2 23 32 14 52 -15 157 -10 238 10 116 29
163 54 208 111 18 22 40 40 48 40 16 0 55 79 75 155 20 73 17 232 -4 272 -12
23 -22 31 -35 27 -14 -5 -14 -4 -3 4 16 12 14 19 -34 97 -37 60 -34 65 18 39z
m-401 -78 c19 -23 24 -87 8 -116 -5 -10 -25 -24 -44 -30 -28 -9 -40 -8 -64 4
-34 18 -42 33 -42 85 0 59 36 91 93 83 18 -2 40 -14 49 -26z m698 -176 c0 -11
6 -20 14 -20 14 0 26 -21 26 -46 0 -20 -27 -17 -33 4 -3 9 -10 32 -15 50 -7
19 -7 32 -1 32 5 0 9 -9 9 -20z m-420 -325 c-7 -8 -17 -15 -22 -15 -6 0 -5 7
2 15 7 8 17 15 22 15 6 0 5 -7 -2 -15z m-561 -19 c8 -9 8 -16 2 -20 -6 -4 -15
3 -21 14 -12 23 2 27 19 6z m487 -29 c-14 -13 -26 -28 -26 -34 0 -11 -81 -33
-122 -33 -17 0 -18 2 -8 15 7 8 20 15 30 15 9 0 34 11 53 25 58 39 92 54 95
44 2 -6 -8 -20 -22 -32z m-426 -23 c0 -2 -9 0 -20 6 -11 6 -20 13 -20 16 0 2
9 0 20 -6 11 -6 20 -13 20 -16z m450 6 c0 -5 -5 -10 -11 -10 -5 0 -7 5 -4 10
3 6 8 10 11 10 2 0 4 -4 4 -10z m-390 -39 c0 -5 -9 -7 -20 -4 -11 3 -20 7 -20
9 0 2 9 4 20 4 11 0 20 -4 20 -9z m40 -207 c14 -7 20 -13 14 -14 -6 0 -28 9
-50 20 -23 12 -29 18 -14 14 14 -4 36 -13 50 -20z"/>
<path d="M4976 3875 c-3 -8 -1 -15 4 -15 13 0 22 18 11 24 -5 3 -11 -1 -15 -9z"/>
<path d="M5045 3870 c-3 -5 -1 -10 4 -10 6 0 11 5 11 10 0 6 -2 10 -4 10 -3 0
-8 -4 -11 -10z"/>
<path d="M5510 3750 c0 -5 5 -10 10 -10 6 0 10 5 10 10 0 6 -4 10 -10 10 -5 0
-10 -4 -10 -10z"/>
<path d="M5045 3730 c3 -5 11 -10 16 -10 6 0 7 5 4 10 -3 6 -11 10 -16 10 -6
0 -7 -4 -4 -10z"/>
<path d="M5080 3666 c0 -9 5 -16 10 -16 6 0 10 4 10 9 0 6 -4 13 -10 16 -5 3
-10 -1 -10 -9z"/>
<path d="M5580 3630 c0 -5 7 -10 15 -10 8 0 15 5 15 10 0 6 -7 10 -15 10 -8 0
-15 -4 -15 -10z"/>
<path d="M5506 3558 c4 -13 8 -32 9 -43 4 -30 4 -30 20 -9 19 25 19 34 -2 34
-13 0 -14 3 -5 12 18 18 15 28 -9 28 -17 0 -19 -4 -13 -22z"/>
<path d="M5458 3500 c-7 -11 -19 -20 -27 -20 -12 0 -12 -3 -3 -12 10 -10 15
-10 21 1 5 7 14 10 20 7 6 -4 11 -3 11 3 0 5 3 16 6 25 9 23 -14 20 -28 -4z"/>
<path d="M5436 3418 c8 -15 19 -28 24 -28 6 0 10 -9 10 -20 0 -11 4 -20 9 -20
5 0 9 11 9 25 0 34 11 44 23 22 9 -16 12 -16 26 -1 9 8 24 13 34 11 12 -3 16
0 12 10 -3 8 -14 13 -24 10 -10 -3 -17 0 -16 6 1 6 -22 11 -60 12 l-62 2 15
-29z"/>
<path d="M2655 3419 c-9 -14 -2 -20 14 -10 8 6 9 11 3 15 -6 3 -14 1 -17 -5z"/>
<path d="M5342 3401 c2 -34 33 -59 42 -35 6 17 -12 51 -31 59 -9 3 -13 -4 -11
-24z"/>
<path d="M5647 3382 c1 -8 3 -16 3 -18 0 -2 5 -4 10 -4 6 0 10 7 10 16 0 8 -4
13 -9 10 -5 -4 -11 -3 -14 1 -2 5 -2 2 0 -5z"/>
<path d="M5341 3349 c0 -8 4 -22 8 -32 6 -17 8 -17 26 4 11 12 14 19 6 14 -9
-5 -19 -2 -28 10 -9 14 -13 15 -12 4z"/>
<path d="M5470 3330 c0 -5 -7 -7 -15 -4 -10 4 -15 0 -15 -11 0 -12 -6 -16 -20
-12 -11 3 -18 2 -15 -2 2 -5 -2 -16 -9 -27 -10 -13 -11 -24 -4 -40 11 -23 36
-39 46 -29 3 3 0 5 -6 5 -7 0 -12 7 -12 15 0 9 6 12 15 9 8 -4 15 -2 15 4 0 6
-5 12 -12 14 -8 3 -7 11 5 28 18 26 17 28 21 -31 1 -9 7 -23 14 -31 10 -13 10
-18 1 -24 -9 -5 -7 -10 7 -15 17 -7 17 -8 2 -8 -10 -1 -18 -6 -18 -12 0 -8 -5
-7 -15 1 -13 11 -14 10 -9 -4 4 -10 1 -16 -7 -16 -9 -1 -7 -6 6 -16 17 -12 21
-13 30 -1 15 20 37 26 59 15 12 -7 22 -6 29 1 8 8 6 11 -6 11 -9 0 -19 11 -23
25 -3 13 -12 30 -20 36 -13 10 -12 14 2 30 10 11 12 19 6 19 -7 0 -12 7 -12
15 0 8 -6 15 -14 15 -8 0 -18 5 -22 11 -4 8 0 9 15 4 27 -8 27 6 1 23 -11 7
-20 8 -20 2z"/>
<path d="M2411 3315 c0 -6 7 -26 15 -45 l14 -35 -5 35 c-5 30 -26 70 -24 45z"/>
<path d="M2432 3210 c0 -14 2 -19 5 -12 2 6 2 18 0 25 -3 6 -5 1 -5 -13z"/>
<path d="M5220 3119 c0 -5 5 -7 10 -4 6 3 10 8 10 11 0 2 -4 4 -10 4 -5 0 -10
-5 -10 -11z"/>
<path d="M755 3100 c-3 -5 -1 -10 4 -10 6 0 11 5 11 10 0 6 -2 10 -4 10 -3 0
-8 -4 -11 -10z"/>
<path d="M5525 3100 c-3 -5 -2 -10 4 -10 5 0 13 5 16 10 3 6 2 10 -4 10 -5 0
-13 -4 -16 -10z"/>
<path d="M5410 3051 c0 -12 6 -21 15 -21 8 0 15 4 15 9 0 5 -7 14 -15 21 -13
10 -15 9 -15 -9z"/>
<path d="M2560 3016 c0 -8 4 -17 8 -20 4 -2 8 4 8 15 0 10 -4 19 -8 19 -4 0
-8 -6 -8 -14z"/>
<path d="M5265 3010 c-7 -11 2 -30 15 -30 4 0 10 6 13 14 6 16 -19 30 -28 16z"/>
<path d="M2466 2971 c-3 -5 1 -11 9 -15 15 -6 29 7 18 18 -9 9 -21 8 -27 -3z"/>
<path d="M2589 2963 c13 -26 3 -30 -30 -12 -17 8 -23 7 -34 -7 -11 -16 -10
-20 4 -31 14 -10 13 -11 -9 -6 -14 3 -30 10 -36 15 -10 7 -63 4 -68 -4 -1 -2
-9 -19 -18 -39 -16 -36 -16 -37 5 -48 12 -6 15 -10 7 -9 -23 4 -62 -27 -101
-79 -32 -42 -36 -54 -35 -103 1 -31 -5 -65 -13 -77 -7 -13 -10 -23 -5 -23 4 0
3 -5 -4 -12 -15 -15 -16 -28 -2 -28 6 0 15 12 21 26 5 15 21 40 34 56 14 16
25 36 25 45 0 9 6 13 14 10 10 -4 13 -1 9 9 -3 8 -1 20 5 27 14 17 32 87 22
87 -4 0 -18 -11 -31 -24 -22 -23 -39 -26 -39 -5 0 5 5 9 11 9 6 0 24 9 40 21
16 11 33 17 39 14 5 -3 7 0 4 8 -7 19 16 30 89 41 36 6 78 -35 47 -46 -7 -2
-6 -15 4 -38 14 -34 14 -61 0 -109 -5 -17 -4 -22 4 -17 7 4 12 2 12 -4 0 -6
-6 -10 -12 -8 -18 4 -67 -42 -62 -57 3 -6 -2 -18 -11 -25 -12 -10 -15 -10 -15
0 0 8 -3 10 -7 6 -5 -4 -8 -12 -8 -17 0 -8 -8 -11 -17 -8 -20 6 -37 6 -33 -1
3 -4 -1 -12 -8 -18 -12 -10 -18 -12 -36 -12 -5 0 -16 -10 -24 -23 -14 -21 -14
-27 1 -58 9 -19 21 -37 26 -41 6 -4 7 -10 4 -14 -4 -4 2 -20 13 -35 11 -16 17
-34 13 -40 -5 -8 -3 -9 6 -4 7 4 16 2 21 -6 12 -20 37 -2 72 49 16 23 36 42
45 42 19 1 216 103 211 110 -6 11 23 50 32 44 6 -4 5 -12 -3 -22 -11 -15 -10
-14 12 1 14 9 48 31 77 48 28 16 59 41 68 55 16 25 16 25 -84 124 -55 55 -104
100 -108 100 -5 0 -15 9 -23 21 -41 57 -88 118 -109 139 -22 24 -23 24 -12 3z
m-279 -279 c0 -8 -4 -14 -10 -14 -5 0 -10 9 -10 21 0 11 5 17 10 14 6 -3 10
-13 10 -21z m24 -16 c-23 -27 -37 -38 -42 -33 -4 4 49 54 57 55 2 0 -4 -10
-15 -22z m466 -168 c0 -5 -4 -10 -10 -10 -5 0 -10 5 -10 10 0 6 5 10 10 10 6
0 10 -4 10 -10z"/>
<path d="M1870 2869 c0 -5 5 -7 10 -4 6 3 10 8 10 11 0 2 -4 4 -10 4 -5 0 -10
-5 -10 -11z"/>
<path d="M3913 2697 c-3 -5 -3 -11 1 -14 8 -8 56 6 56 17 0 12 -49 9 -57 -3z"/>
<path d="M3853 2688 c-27 -13 -31 -34 -5 -23 9 4 23 8 30 8 6 0 12 6 12 14 0
15 -7 16 -37 1z"/>
<path d="M925 2650 c-15 -17 -16 -20 -3 -20 9 0 19 7 22 16 10 25 1 27 -19 4z"/>
<path d="M5275 2660 c-3 -5 -1 -10 4 -10 6 0 11 5 11 10 0 6 -2 10 -4 10 -3 0
-8 -4 -11 -10z"/>
<path d="M5475 2590 c-3 -5 -1 -10 4 -10 6 0 11 5 11 10 0 6 -2 10 -4 10 -3 0
-8 -4 -11 -10z"/>
<path d="M820 2560 c0 -5 5 -10 11 -10 5 0 7 5 4 10 -3 6 -8 10 -11 10 -2 0
-4 -4 -4 -10z"/>
<path d="M880 2561 c0 -5 5 -13 10 -16 6 -3 10 -2 10 4 0 5 -4 13 -10 16 -5 3
-10 2 -10 -4z"/>
<path d="M2255 2410 c3 -5 8 -10 11 -10 2 0 4 5 4 10 0 6 -5 10 -11 10 -5 0
-7 -4 -4 -10z"/>
<path d="M1120 2345 c-8 -9 -8 -15 -2 -15 12 0 26 19 19 26 -2 2 -10 -2 -17
-11z"/>
<path d="M1082 2289 c2 -7 10 -15 17 -17 8 -3 12 1 9 9 -2 7 -10 15 -17 17 -8
3 -12 -1 -9 -9z"/>
<path d="M5185 2280 c3 -5 8 -10 11 -10 2 0 4 5 4 10 0 6 -5 10 -11 10 -5 0
-7 -4 -4 -10z"/>
<path d="M4970 2264 c0 -14 3 -14 15 -4 8 7 15 14 15 16 0 2 -7 4 -15 4 -8 0
-15 -7 -15 -16z"/>
<path d="M5080 2270 c0 -5 5 -10 10 -10 6 0 10 5 10 10 0 6 -4 10 -10 10 -5 0
-10 -4 -10 -10z"/>
<path d="M4973 2225 c-17 -15 -21 -23 -10 -19 9 3 17 11 17 16 0 6 7 7 16 4 8
-3 13 -2 9 3 -3 5 1 12 7 14 9 4 10 6 1 6 -7 1 -25 -10 -40 -24z"/>
<path d="M5094 2239 c-6 -10 12 -29 29 -29 9 0 9 4 1 24 -7 19 -20 21 -30 5z"/>
<path d="M4310 2149 c0 -5 5 -7 10 -4 6 3 10 8 10 11 0 2 -4 4 -10 4 -5 0 -10
-5 -10 -11z"/>
<path d="M4508 2153 c7 -3 16 -2 19 1 4 3 -2 6 -13 5 -11 0 -14 -3 -6 -6z"/>
<path d="M1336 2072 c-3 -5 1 -9 9 -9 8 0 15 4 15 9 0 4 -4 8 -9 8 -6 0 -12
-4 -15 -8z"/>
<path d="M4473 2052 c-6 -4 -12 -16 -14 -26 -6 -29 -29 -32 -30 -4 0 13 -3 17
-6 10 -2 -6 -10 -9 -16 -5 -7 3 -9 3 -5 -2 4 -4 3 -15 -4 -22 -8 -11 -9 -16
-1 -21 8 -5 3 -15 -12 -28 -13 -12 -27 -19 -30 -15 -4 3 -5 -7 -3 -23 3 -32
28 -49 28 -19 0 10 9 24 20 31 11 7 20 22 20 33 0 18 2 19 15 9 12 -10 19 -8
39 11 30 31 41 65 23 72 -8 3 -19 2 -24 -1z"/>
<path d="M4145 1980 c-3 -5 -2 -10 4 -10 5 0 13 5 16 10 3 6 2 10 -4 10 -5 0
-13 -4 -16 -10z"/>
<path d="M2245 1901 c-3 -6 -11 -9 -16 -6 -5 4 -9 2 -9 -3 0 -18 13 -21 27 -6
9 8 13 17 10 20 -3 3 -8 0 -12 -5z"/>
<path d="M3770 1831 c0 -5 7 -12 16 -15 14 -5 15 -4 4 9 -14 17 -20 19 -20 6z"/>
<path d="M2627 1766 c4 -20 8 -22 18 -13 9 8 10 16 3 25 -17 19 -26 14 -21
-12z"/>
<path d="M3840 1776 c0 -2 9 -6 20 -9 11 -3 18 -1 14 4 -5 9 -34 13 -34 5z"/>
<path d="M2930 1740 c-8 -5 -12 -12 -9 -15 4 -3 12 1 19 10 14 17 11 19 -10 5z"/>
<path d="M2964 1690 c-1 -19 4 -30 13 -30 9 0 13 10 11 30 -3 39 -23 39 -24 0z"/>
<path d="M2928 1673 c-10 -2 -18 -9 -18 -14 0 -6 8 -5 20 1 11 6 20 13 20 15
0 3 -1 4 -2 4 -2 -1 -11 -3 -20 -6z"/>
<path d="M4158 5043 c6 -2 18 -2 25 0 6 3 1 5 -13 5 -14 0 -19 -2 -12 -5z"/>
<path d="M4145 4960 c-3 -5 1 -10 9 -10 9 0 16 5 16 10 0 6 -4 10 -9 10 -6 0
-13 -4 -16 -10z"/>
<path d="M5289 1943 c-14 -17 -13 -20 3 -37 22 -24 25 -20 18 22 -5 31 -6 32
-21 15z"/>
<path d="M5390 1916 c0 -9 -5 -16 -11 -16 -6 0 -9 -5 -7 -11 2 -6 8 -10 13
-10 13 0 26 39 15 46 -6 4 -10 -1 -10 -9z"/>
<path d="M1075 1830 c3 -5 8 -10 11 -10 2 0 4 5 4 10 0 6 -5 10 -11 10 -5 0
-7 -4 -4 -10z"/>
<path d="M5445 1820 c-3 -5 -1 -10 4 -10 6 0 11 5 11 10 0 6 -2 10 -4 10 -3 0
-8 -4 -11 -10z"/>
<path d="M1617 1813 c-4 -3 -7 -11 -7 -17 0 -6 5 -5 12 2 6 6 9 14 7 17 -3 3
-9 2 -12 -2z"/>
<path d="M1262 1785 c2 -21 -1 -30 -12 -30 -8 0 -21 -4 -27 -8 -8 -5 -13 -3
-13 3 0 6 -5 8 -10 5 -23 -14 18 -34 66 -32 43 2 49 5 50 25 1 12 -5 22 -12
22 -7 0 -20 10 -29 23 l-16 22 3 -30z"/>
<path d="M4190 1770 c0 -5 5 -10 11 -10 5 0 7 5 4 10 -3 6 -8 10 -11 10 -2 0
-4 -4 -4 -10z"/>
<path d="M1590 1755 c-7 -9 -8 -15 -2 -15 5 0 12 7 16 15 3 8 4 15 2 15 -2 0
-9 -7 -16 -15z"/>
<path d="M1137 1747 c-3 -8 1 -14 9 -14 8 0 14 6 14 14 0 7 -4 13 -9 13 -5 0
-11 -6 -14 -13z"/>
<path d="M1461 1744 c0 -11 3 -14 6 -6 3 7 2 16 -1 19 -3 4 -6 -2 -5 -13z"/>
<path d="M4620 1745 c-9 -10 -9 -15 -1 -15 6 0 11 5 11 11 0 5 5 7 10 4 6 -3
10 -1 10 4 0 16 -16 13 -30 -4z"/>
<path d="M5070 1750 c0 -5 5 -10 11 -10 5 0 7 5 4 10 -3 6 -8 10 -11 10 -2 0
-4 -4 -4 -10z"/>
<path d="M5481 1746 c-10 -12 -8 -13 8 -9 12 3 21 9 21 14 0 14 -16 11 -29 -5z"/>
<path d="M4207 1730 c8 -29 25 -37 21 -9 -1 12 -8 24 -15 26 -7 3 -9 -3 -6
-17z"/>
<path d="M5090 1721 c0 -5 5 -13 10 -16 6 -3 10 -2 10 4 0 5 -4 13 -10 16 -5
3 -10 2 -10 -4z"/>
<path d="M5497 1704 c-11 -11 -8 -44 3 -44 15 0 24 30 13 41 -5 5 -12 6 -16 3z"/>
<path d="M4550 1686 c0 -9 5 -16 10 -16 6 0 10 4 10 9 0 6 -4 13 -10 16 -5 3
-10 -1 -10 -9z"/>
<path d="M1946 1666 c2 -10 1 -16 -3 -13 -7 8 -33 -18 -33 -33 0 -7 9 -9 23
-5 22 6 22 6 2 -10 -15 -12 -17 -18 -7 -24 11 -6 10 -10 -1 -19 -16 -14 -47
17 -47 48 0 31 -20 24 -21 -7 0 -16 -2 -36 -4 -46 -2 -9 1 -15 5 -12 5 3 14
-4 20 -16 11 -19 10 -20 -9 -14 -13 4 -21 2 -21 -5 0 -7 9 -14 20 -17 11 -3
20 -9 20 -13 0 -5 9 -10 20 -12 18 -3 19 -5 6 -29 -14 -27 -10 -42 11 -46 18
-4 53 29 45 41 -11 18 -11 39 -1 59 9 17 8 17 -10 7 -32 -17 -25 3 10 29 18
13 29 19 25 12 -4 -6 0 -18 8 -27 9 -8 16 -11 16 -5 0 6 5 11 10 11 6 0 10 -7
10 -15 0 -8 -8 -15 -19 -15 -10 0 -24 -7 -31 -15 -9 -10 -9 -15 -1 -15 6 0 11
5 11 10 0 6 10 10 23 10 21 -1 22 -1 3 -15 -11 -8 -15 -15 -8 -15 6 0 17 9 25
20 8 11 17 17 21 13 4 -4 4 1 0 10 -3 10 -3 17 2 15 9 -3 14 5 14 23 0 7 -10
9 -25 7 -27 -6 -35 9 -10 18 8 4 12 10 9 16 -3 5 -12 7 -20 4 -20 -8 -30 15
-12 28 8 6 14 16 12 21 -1 6 -5 22 -8 37 -5 24 -10 26 -45 25 -32 -2 -38 -5
-35 -21z m54 -21 c14 -19 14 -19 -2 -6 -10 7 -18 18 -18 24 0 6 1 8 3 6 1 -2
9 -13 17 -24z m-12 -62 c-5 -25 -28 -28 -28 -4 0 12 6 21 16 21 9 0 14 -7 12
-17z"/>
<path d="M4380 1681 c0 -5 7 -11 15 -15 8 -3 15 -1 15 3 0 5 -7 11 -15 15 -8
3 -15 1 -15 -3z"/>
<path d="M2206 1625 c-15 -19 -22 -35 -17 -35 6 0 16 9 23 20 7 11 18 20 25
20 15 0 17 16 4 24 -5 3 -21 -10 -35 -29z"/>
<path d="M4225 1640 c3 -5 8 -10 11 -10 2 0 4 5 4 10 0 6 -5 10 -11 10 -5 0
-7 -4 -4 -10z"/>
<path d="M1140 1630 c0 -15 21 -23 32 -12 6 6 2 11 -11 15 -12 3 -21 1 -21 -3z"/>
<path d="M1197 1619 c-8 -28 -3 -34 17 -22 14 8 14 12 3 27 -13 18 -14 18 -20
-5z"/>
<path d="M1240 1621 c0 -5 5 -13 10 -16 6 -3 10 -2 10 4 0 5 -4 13 -10 16 -5
3 -10 2 -10 -4z"/>
<path d="M5511 1614 c0 -11 3 -14 6 -6 3 7 2 16 -1 19 -3 4 -6 -2 -5 -13z"/>
<path d="M4295 1566 c-16 -17 -13 -98 4 -104 10 -3 12 0 7 13 -3 10 -3 23 2
29 12 17 0 77 -13 62z"/>
<path d="M4413 1557 c4 -10 7 -23 7 -28 0 -5 5 -9 10 -9 16 0 12 26 -7 41 -15
12 -16 12 -10 -4z"/>
<path d="M5486 1519 c-31 -24 -34 -54 -6 -69 11 -6 20 -18 20 -26 0 -9 8 -28
18 -42 31 -44 36 -56 24 -48 -18 11 -14 -5 8 -39 22 -34 56 -41 63 -14 3 12 0
16 -9 12 -9 -3 -14 2 -14 17 0 11 -4 18 -10 15 -5 -3 -10 -1 -10 4 0 15 13 14
28 -1 10 -10 12 -8 9 7 -3 26 -16 46 -25 41 -4 -2 -16 0 -27 5 -17 6 -17 8 -2
8 23 1 21 12 -8 40 -24 22 -30 42 -26 89 2 27 0 27 -33 1z"/>
<path d="M2241 1491 c-19 -12 -6 -40 18 -38 11 0 18 4 15 8 -2 4 0 10 6 14 13
8 3 25 -13 25 -7 0 -18 -4 -26 -9z"/>
<path d="M2922 1488 c3 -7 13 -15 24 -17 16 -3 17 -1 5 13 -16 19 -34 21 -29
4z"/>
<path d="M4192 1483 c5 -25 28 -28 28 -4 0 12 -6 21 -16 21 -9 0 -14 -7 -12
-17z"/>
<path d="M4067 1484 c-3 -3 -3 -13 0 -21 5 -12 7 -12 14 -1 15 23 4 40 -14 22z"/>
<path d="M5400 1472 c0 -5 9 -17 20 -27 20 -18 21 -18 12 5 -9 24 -32 40 -32
22z"/>
<path d="M4030 1455 c11 -13 11 -18 1 -24 -6 -4 -11 -14 -9 -22 2 -8 -7 -15
-19 -17 -30 -4 -30 -35 -1 -62 12 -11 25 -20 29 -20 4 0 15 -18 25 -40 18 -40
34 -44 34 -8 0 14 5 18 15 14 19 -7 19 1 0 21 -9 8 -13 18 -10 22 4 3 15 -5
25 -19 15 -20 22 -22 31 -13 10 10 8 21 -7 52 -16 33 -25 40 -56 45 -20 3 -40
11 -44 18 -5 7 -2 9 8 6 12 -5 14 0 9 25 -4 20 -14 33 -26 36 -17 3 -18 1 -5
-14z"/>
<path d="M4470 1453 c0 -13 5 -23 10 -23 13 0 13 11 0 30 -8 12 -10 11 -10 -7z"/>
<path d="M2101 1451 c-8 -5 -20 -7 -28 -4 -8 3 -13 -2 -13 -13 0 -9 -8 -27
-17 -38 -18 -21 -18 -21 3 -3 24 20 56 25 36 5 -17 -17 -15 -26 6 -31 12 -3
11 -5 -6 -6 -13 0 -21 -5 -18 -10 4 -5 0 -12 -6 -15 -7 -3 -2 -4 12 -3 16 1
25 -3 25 -13 0 -8 7 -15 15 -15 8 0 14 5 13 12 -2 7 4 10 13 6 13 -5 15 -2 8
18 -4 13 -8 33 -9 44 -1 11 -4 27 -7 35 -4 8 -8 20 -10 27 -2 8 -8 9 -17 4z"/>
<path d="M4286 1431 c4 -17 3 -21 -6 -16 -9 6 -9 3 -1 -12 5 -11 11 -37 13
-57 1 -20 6 -36 10 -36 11 0 -1 110 -13 130 -7 11 -8 8 -3 -9z"/>
<path d="M887 1418 c-9 -13 -14 -29 -11 -38 4 -8 9 -29 13 -45 3 -18 12 -30
21 -30 8 0 21 -5 28 -12 7 -7 19 -13 25 -13 8 0 7 3 -2 9 -8 5 -9 11 -3 15 13
8 4 42 -14 57 -10 8 -15 5 -20 -15 -3 -14 -10 -26 -14 -26 -13 0 -18 50 -6 58
11 7 17 62 6 62 -3 0 -13 -10 -23 -22z"/>
<path d="M1216 1414 c-4 -9 -4 -19 -1 -22 2 -3 7 3 11 12 4 9 4 19 1 22 -2 3
-7 -3 -11 -12z"/>
<path d="M4204 1408 c9 -12 16 -31 16 -42 0 -14 3 -17 10 -10 11 11 -17 74
-33 74 -5 0 -1 -10 7 -22z"/>
<path d="M1175 1410 c-3 -5 -1 -10 4 -10 6 0 11 5 11 10 0 6 -2 10 -4 10 -3 0
-8 -4 -11 -10z"/>
<path d="M2286 1407 c3 -10 9 -15 12 -12 3 3 0 11 -7 18 -10 9 -11 8 -5 -6z"/>
<path d="M3083 1401 c-1 -11 6 -22 15 -26 13 -5 14 -3 5 6 -6 6 -9 18 -6 25 3
8 1 14 -4 14 -5 0 -9 -9 -10 -19z"/>
<path d="M1940 1370 c0 -5 7 -10 16 -10 8 0 12 5 9 10 -3 6 -10 10 -16 10 -5
0 -9 -4 -9 -10z"/>
<path d="M4650 1350 c0 -5 5 -10 11 -10 5 0 7 5 4 10 -3 6 -8 10 -11 10 -2 0
-4 -4 -4 -10z"/>
<path d="M3013 1335 c-7 -8 -10 -21 -7 -29 7 -19 21 -21 26 -4 3 7 7 2 10 -10
4 -12 2 -20 -3 -16 -5 3 -6 -2 -3 -10 12 -30 30 -16 32 24 2 34 0 40 -17 40
-11 0 -21 4 -23 9 -1 5 -9 3 -15 -4z"/>
<path d="M4676 1334 c-12 -31 -7 -56 10 -50 9 3 21 6 27 6 6 0 2 7 -9 15 -10
8 -14 15 -7 15 7 0 10 7 7 15 -8 19 -20 19 -28 -1z"/>
<path d="M1580 1310 c0 -5 5 -10 11 -10 5 0 7 5 4 10 -3 6 -8 10 -11 10 -2 0
-4 -4 -4 -10z"/>
<path d="M2126 1294 c-8 -22 -4 -25 11 -9 7 8 9 16 4 19 -5 3 -12 -1 -15 -10z"/>
<path d="M4296 1287 c3 -10 9 -15 12 -12 3 3 0 11 -7 18 -10 9 -11 8 -5 -6z"/>
<path d="M893 1278 c2 -7 10 -13 17 -13 7 0 15 6 18 13 2 7 -5 12 -18 12 -13
0 -20 -5 -17 -12z"/>
<path d="M2105 1267 c14 -24 14 -31 3 -45 -9 -11 -10 -14 0 -8 7 4 12 1 12 -8
0 -9 6 -16 13 -16 8 0 24 -11 37 -25 13 -14 20 -25 15 -25 -4 0 -14 8 -22 18
-12 15 -13 13 -7 -18 8 -44 18 -57 50 -63 20 -3 28 2 41 27 24 45 24 72 1 101
-11 14 -19 27 -17 29 2 2 20 11 39 21 31 16 33 19 15 25 -13 5 -26 2 -37 -8
-12 -9 -18 -11 -18 -4 0 7 -4 12 -10 12 -5 0 -10 -7 -10 -17 0 -14 -2 -14 -20
2 -17 15 -24 16 -46 6 -22 -10 -29 -9 -41 6 -10 12 -9 9 2 -10z m120 -111 c9
-3 13 -11 9 -17 -8 -14 -44 28 -43 51 0 9 4 7 9 -6 4 -12 16 -24 25 -28z"/>
<path d="M4601 1264 c0 -11 3 -14 6 -6 3 7 2 16 -1 19 -3 4 -6 -2 -5 -13z"/>
<path d="M3617 1263 c-12 -12 -7 -43 7 -43 9 0 12 8 8 25 -5 27 -6 28 -15 18z"/>
<path d="M4305 1251 c-3 -5 -1 -12 5 -16 5 -3 10 1 10 9 0 18 -6 21 -15 7z"/>
<path d="M5600 1240 c0 -5 5 -10 10 -10 6 0 10 5 10 10 0 6 -4 10 -10 10 -5 0
-10 -4 -10 -10z"/>
<path d="M4323 1173 c3 -26 9 -49 14 -50 6 -2 8 -16 6 -31 -3 -20 -2 -23 6
-12 14 23 2 140 -16 140 -10 0 -13 -12 -10 -47z"/>
<path d="M1160 1190 c0 -6 7 -10 15 -10 8 0 15 2 15 4 0 2 -7 6 -15 10 -8 3
-15 1 -15 -4z"/>
<path d="M4690 1186 c0 -8 -3 -23 -7 -33 -6 -16 -5 -16 10 -4 19 15 22 37 7
46 -5 3 -10 0 -10 -9z"/>
<path d="M5690 1170 c0 -13 18 -22 24 -11 3 5 -1 11 -9 15 -8 3 -15 1 -15 -4z"/>
<path d="M1155 1157 c3 -10 5 -25 5 -33 0 -8 10 -14 25 -14 14 0 25 5 25 10 0
6 -5 10 -11 10 -5 0 -8 4 -4 9 3 5 1 12 -5 16 -6 3 -10 -4 -10 -17 -1 -21 -2
-20 -16 7 -8 17 -12 22 -9 12z"/>
<path d="M1425 1160 c3 -5 8 -10 11 -10 2 0 4 5 4 10 0 6 -5 10 -11 10 -5 0
-7 -4 -4 -10z"/>
<path d="M4553 1157 c-24 -8 -36 -21 -47 -52 -18 -46 -21 -69 -5 -42 5 9 16
17 24 17 11 0 14 -14 13 -55 -1 -30 -5 -55 -10 -55 -7 0 -12 19 -11 48 1 21
-16 13 -22 -10 -6 -26 -2 -54 8 -64 4 -4 7 -16 7 -26 0 -10 6 -18 14 -18 10 0
12 -11 8 -45 -4 -37 -2 -45 12 -45 14 0 15 4 5 21 -15 29 6 72 33 63 20 -6 22
3 9 40 -8 18 -6 28 5 37 13 10 17 10 24 0 6 -10 10 -8 15 8 4 13 1 28 -6 37
-10 12 -9 18 3 31 15 14 15 20 0 62 -14 42 -29 63 -42 59 -3 0 -19 -6 -37 -11z"/>
<path d="M5637 1143 c-4 -3 -7 -15 -7 -25 0 -15 3 -16 19 -6 10 6 17 18 14 25
-6 14 -16 17 -26 6z"/>
<path d="M3804 1058 c4 -34 10 -66 12 -70 9 -15 43 -8 53 11 13 23 2 91 -14
91 -7 0 -15 7 -19 15 -3 8 -13 15 -22 15 -14 0 -16 -8 -10 -62z"/>
<path d="M3520 1100 c0 -12 35 -31 44 -23 15 15 4 33 -19 33 -14 0 -25 -4 -25
-10z"/>
<path d="M3674 1102 c-17 -11 -27 -68 -15 -90 16 -30 63 -43 87 -25 12 10 15
17 8 20 -7 2 -10 12 -7 23 3 10 -3 32 -13 49 -18 30 -38 38 -60 23z"/>
<path d="M4140 1103 c0 -5 5 -15 10 -23 7 -11 12 -12 21 -3 6 6 8 16 5 22 -8
12 -36 15 -36 4z"/>
<path d="M2467 1076 c-9 -23 3 -46 23 -46 11 0 19 10 22 25 3 14 2 25 -3 25
-4 0 -14 3 -22 6 -8 3 -17 -2 -20 -10z"/>
<path d="M1190 1070 c0 -5 4 -10 9 -10 6 0 13 5 16 10 3 6 -1 10 -9 10 -9 0
-16 -4 -16 -10z"/>
<path d="M2663 1068 c-36 -17 -32 -24 42 -84 18 -14 43 -24 62 -24 33 0 51 14
33 25 -5 3 -10 21 -10 40 0 28 -5 35 -31 44 -39 13 -67 13 -96 -1z"/>
<path d="M1539 1049 c-1 -10 -2 -25 -3 -31 -1 -7 11 -25 26 -40 29 -27 36 -48
18 -48 -6 0 -14 10 -19 22 -6 16 -10 18 -16 9 -4 -8 -2 -17 6 -22 12 -8 6 -13
-12 -11 -4 1 -6 -6 -5 -16 0 -9 -5 -16 -11 -14 -7 1 -13 -3 -13 -9 0 -7 10 -9
25 -7 15 3 22 1 18 -5 -4 -6 0 -8 10 -4 13 5 16 1 14 -13 -2 -11 -7 -23 -12
-27 -4 -5 -5 -3 -2 3 4 7 0 14 -8 18 -19 7 -19 -8 0 -24 16 -13 11 -49 -7 -61
-6 -4 -6 -9 1 -13 6 -4 11 -18 11 -32 0 -14 4 -23 8 -20 4 2 14 1 22 -5 10 -6
11 -9 3 -9 -7 0 -13 -7 -13 -15 0 -8 4 -15 8 -15 5 0 18 -18 30 -39 19 -33 20
-40 7 -45 -30 -11 -16 -27 19 -22 19 3 38 1 41 -4 3 -6 -1 -10 -9 -10 -21 0
-31 -21 -16 -30 17 -11 42 14 56 56 9 27 8 35 -4 48 -14 13 -13 14 9 10 21 -5
22 -4 6 6 -18 11 -18 13 -1 31 9 10 14 19 9 19 -4 0 -2 6 4 14 9 11 9 15 -1
19 -7 3 -4 6 7 6 16 1 20 7 19 33 -1 18 -5 41 -9 52 -5 10 -3 21 3 25 6 4 7
12 3 20 -12 18 -30 -14 -24 -40 3 -11 0 -19 -6 -19 -6 0 -11 8 -11 18 0 14 -2
15 -10 2 -6 -9 -6 -18 1 -25 6 -6 2 -16 -13 -28 -13 -10 -17 -16 -10 -12 6 3
12 2 12 -4 0 -5 3 -16 6 -25 3 -9 1 -16 -5 -16 -7 0 -17 14 -23 30 -5 17 -15
30 -22 29 -25 -3 -36 2 -36 16 0 9 -9 15 -22 15 -26 0 -14 14 20 25 14 4 22 2
22 -5 0 -6 -4 -8 -10 -5 -14 8 -13 -8 1 -22 6 -6 18 -9 26 -6 16 6 57 82 49
91 -3 3 0 15 8 27 13 20 12 21 -20 17 -19 -2 -32 -8 -29 -12 3 -5 1 -11 -4
-14 -14 -9 -21 20 -8 33 8 8 5 11 -11 11 -16 0 -20 -4 -16 -17 5 -15 4 -16 -5
-3 -10 13 -12 13 -21 0 -6 -9 -10 -10 -10 -3 0 6 5 15 10 18 8 5 7 11 -1 21
-9 11 -8 14 2 14 10 1 8 5 -5 15 -11 8 -17 17 -14 20 3 4 15 -5 26 -19 19 -25
32 -25 32 1 0 7 -7 13 -15 13 -8 0 -12 6 -9 13 2 7 -6 17 -18 23 -13 6 -17 9
-10 7 26 -6 5 21 -21 28 -22 6 -27 4 -28 -12z m111 -202 c0 -18 -2 -19 -10 -7
-13 20 -13 43 0 35 6 -3 10 -16 10 -28z m-60 -77 c0 -5 -2 -10 -4 -10 -3 0 -8
5 -11 10 -3 6 -1 10 4 10 6 0 11 -4 11 -10z"/>
<path d="M4330 1045 c0 -8 7 -15 15 -15 8 0 15 7 15 15 0 8 -7 15 -15 15 -8 0
-15 -7 -15 -15z"/>
<path d="M985 1020 c3 -5 8 -10 11 -10 2 0 4 5 4 10 0 6 -5 10 -11 10 -5 0 -7
-4 -4 -10z"/>
<path d="M1496 1015 c-3 -8 -1 -15 4 -15 6 0 10 7 10 15 0 8 -2 15 -4 15 -2 0
-6 -7 -10 -15z"/>
<path d="M1181 981 c-11 -7 -9 -11 8 -20 21 -12 27 -6 13 16 -5 7 -13 9 -21 4z"/>
<path d="M3915 979 c-4 -6 -5 -12 -2 -15 2 -3 7 2 10 11 7 17 1 20 -8 4z"/>
<path d="M3430 958 c0 -2 -3 -25 -6 -53 -5 -47 -4 -51 23 -67 15 -9 32 -16 38
-16 5 0 13 -11 18 -24 7 -18 10 -20 17 -8 6 9 10 10 10 3 0 -6 14 -14 30 -18
18 -4 27 -11 24 -17 -5 -7 -2 -8 5 -4 8 5 11 3 9 -7 -3 -15 0 -17 22 -17 16 0
11 18 -10 38 -17 15 -19 24 -11 45 11 28 6 38 -14 31 -10 -4 -12 1 -8 17 4 13
0 26 -9 33 -8 6 -17 19 -21 29 -4 10 -11 16 -16 13 -5 -3 -14 1 -21 9 -10 12
-79 23 -80 13z"/>
<path d="M1170 922 c0 -5 7 -13 16 -16 10 -4 14 -1 12 6 -5 15 -28 23 -28 10z"/>
<path d="M2770 922 c0 -18 12 -42 21 -42 14 0 10 26 -6 40 -9 8 -15 8 -15 2z"/>
<path d="M4412 900 c0 -14 2 -19 5 -12 2 6 2 18 0 25 -3 6 -5 1 -5 -13z"/>
<path d="M2351 883 c-9 -16 -12 -16 -21 -3 -7 11 -10 6 -10 -22 0 -33 3 -37
32 -43 20 -5 34 -3 36 3 2 6 10 8 18 5 16 -6 47 15 39 27 -2 4 -16 6 -30 5
-14 -2 -23 0 -20 5 2 4 -4 15 -14 24 -18 17 -20 16 -30 -1z"/>
<path d="M2499 883 c-1 -4 -1 -16 0 -25 1 -10 -4 -18 -13 -18 -24 0 -19 -20
11 -52 20 -21 24 -31 15 -40 -8 -8 -15 -8 -27 2 -23 19 -18 1 8 -26 28 -30 47
-30 47 0 0 13 7 26 15 30 23 8 19 53 -5 59 -13 3 -22 17 -26 36 -6 30 -23 52
-25 34z"/>
<path d="M1457 873 c-7 -13 13 -73 23 -73 6 0 10 7 10 16 0 9 -5 12 -11 8 -8
-5 -10 1 -5 19 6 24 -7 47 -17 30z"/>
<path d="M3152 868 c-17 -17 -15 -35 5 -42 21 -8 36 6 31 30 -4 22 -20 28 -36
12z"/>
<path d="M4411 844 c0 -11 3 -14 6 -6 3 7 2 16 -1 19 -3 4 -6 -2 -5 -13z"/>
<path d="M5370 851 c0 -5 5 -13 10 -16 6 -3 10 -2 10 4 0 5 -4 13 -10 16 -5 3
-10 2 -10 -4z"/>
<path d="M4636 815 c-3 -12 -1 -36 4 -53 5 -18 6 -32 3 -32 -3 0 4 -15 14 -33
24 -41 15 -77 -19 -77 -18 0 -20 -2 -8 -10 12 -7 10 -11 -10 -19 -14 -5 -33
-21 -44 -35 -14 -19 -25 -24 -41 -20 -16 4 -24 0 -29 -12 -6 -16 -12 -12 -43
21 -29 33 -34 36 -28 16 6 -21 5 -23 -14 -18 -33 8 -25 -9 17 -34 20 -12 39
-24 41 -25 2 -2 -2 -17 -8 -34 -9 -29 -9 -31 9 -25 11 4 20 2 20 -3 0 -5 8 -9
17 -8 10 0 24 -12 32 -29 11 -22 16 -26 19 -13 2 9 14 19 28 22 14 4 22 11 18
17 -3 6 -17 8 -30 5 -18 -5 -24 -2 -24 9 0 12 -6 15 -20 10 -15 -5 -19 -3 -14
10 5 11 0 18 -15 22 -11 3 -21 10 -21 15 0 5 9 7 20 3 18 -6 38 6 135 80 10 8
28 15 40 15 18 0 21 -6 20 -47 0 -42 3 -48 23 -51 21 -3 32 -22 12 -22 -5 0
-10 -8 -10 -18 0 -9 -12 -25 -27 -35 l-28 -17 33 5 c27 5 112 50 112 60 0 2
-9 1 -21 -2 -30 -8 -37 10 -34 84 1 35 -1 66 -5 68 -5 3 -21 36 -36 75 -15 38
-31 67 -37 63 -6 -3 -8 6 -6 23 3 20 -3 35 -18 50 l-21 22 -6 -23z"/>
<path d="M3636 803 c-10 -10 -7 -51 5 -58 6 -4 8 -13 5 -21 -6 -16 3 -18 23
-5 7 5 9 11 4 14 -5 3 -8 19 -7 36 2 28 -16 48 -30 34z"/>
<path d="M4997 796 c-8 -21 1 -66 13 -66 15 0 17 14 5 49 -9 26 -13 30 -18 17z"/>
<path d="M2352 778 c6 -17 68 -32 81 -19 6 6 7 14 2 18 -4 5 -10 3 -12 -4 -3
-8 -11 -7 -31 3 -33 17 -45 18 -40 2z"/>
<path d="M3535 760 c3 -5 8 -10 11 -10 2 0 4 5 4 10 0 6 -5 10 -11 10 -5 0 -7
-4 -4 -10z"/>
<path d="M1871 734 c0 -11 3 -14 6 -6 3 7 2 16 -1 19 -3 4 -6 -2 -5 -13z"/>
<path d="M2365 740 c4 -6 1 -17 -5 -25 -7 -8 -10 -22 -6 -30 3 -8 1 -15 -5
-15 -14 0 -2 -39 20 -65 27 -32 44 -72 36 -87 -3 -7 0 -5 7 4 10 11 19 14 29
7 24 -15 39 -10 39 15 0 13 -9 30 -20 37 -11 8 -21 27 -22 42 -1 16 -9 34 -17
40 -12 10 -14 9 -8 -5 12 -34 -3 -18 -18 18 -14 34 -14 38 2 51 10 8 13 12 6
9 -6 -4 -14 -2 -18 4 -3 5 -11 10 -16 10 -6 0 -7 -5 -4 -10z"/>
<path d="M4245 693 c10 -78 14 -90 31 -97 12 -5 15 -2 9 11 -4 10 -8 24 -8 31
0 6 -4 12 -9 12 -4 0 -8 16 -8 35 0 21 5 35 13 35 8 0 7 4 -3 10 -27 17 -31
11 -25 -37z"/>
<path d="M4480 713 c0 -34 12 -63 26 -63 8 0 14 -5 14 -12 0 -6 3 -9 6 -5 9 9
-6 48 -17 42 -5 -4 -9 5 -9 19 0 14 -4 28 -10 31 -5 3 -10 -2 -10 -12z"/>
<path d="M4392 693 c2 -9 9 -18 16 -21 18 -6 15 25 -4 32 -11 4 -14 1 -12 -11z"/>
<path d="M4770 696 c0 -9 5 -16 10 -16 6 0 10 4 10 9 0 6 -4 13 -10 16 -5 3
-10 -1 -10 -9z"/>
<path d="M4300 690 c0 -5 5 -10 10 -10 6 0 10 5 10 10 0 6 -4 10 -10 10 -5 0
-10 -4 -10 -10z"/>
<path d="M1754 673 c2 -12 -1 -24 -8 -27 -8 -3 -8 -5 1 -5 17 -1 22 11 12 34
-9 19 -9 19 -5 -2z"/>
<path d="M1940 650 c0 -13 18 -22 24 -11 3 5 -1 11 -9 15 -8 3 -15 1 -15 -4z"/>
<path d="M2073 632 c-1 -22 0 -24 9 -8 6 10 6 22 2 26 -5 5 -10 -3 -11 -18z"/>
<path d="M4798 648 c-6 -15 18 -55 28 -46 3 4 -1 18 -9 33 -10 20 -15 23 -19
13z"/>
<path d="M1880 640 c0 -5 5 -10 10 -10 6 0 10 5 10 10 0 6 -4 10 -10 10 -5 0
-10 -4 -10 -10z"/>
<path d="M2500 601 c11 -22 29 -36 36 -29 5 6 -30 48 -40 48 -4 0 -2 -9 4 -19z"/>
<path d="M1604 602 c4 -7 2 -12 -3 -12 -6 0 -11 -4 -11 -10 0 -15 17 -12 23 5
4 8 1 17 -5 21 -7 4 -8 3 -4 -4z"/>
<path d="M1984 585 c10 -14 14 -34 11 -45 -3 -10 -1 -21 5 -25 7 -4 7 -12 0
-25 -7 -13 -6 -21 5 -30 12 -10 15 -10 15 3 0 8 4 17 10 19 6 2 4 14 -5 31
-14 27 -13 28 5 22 31 -10 24 17 -10 40 -16 11 -30 23 -30 28 0 4 -5 7 -11 7
-7 0 -5 -10 5 -25z"/>
<path d="M4854 589 c-4 -8 -3 -9 5 -5 6 4 19 2 28 -6 14 -11 15 -11 11 2 -6
19 -34 25 -44 9z"/>
<path d="M1744 578 c3 -7 9 -21 12 -30 9 -26 27 -22 19 3 -6 16 -4 20 6 13 12
-6 12 -5 0 9 -16 20 -46 23 -37 5z"/>
<path d="M1833 559 c-1 -12 4 -19 15 -18 11 0 12 2 4 6 -6 2 -10 9 -7 13 3 5
2 11 -3 14 -4 2 -9 -4 -9 -15z"/>
<path d="M1938 541 c5 -23 6 -23 18 -6 19 25 17 34 -4 32 -14 -1 -17 -7 -14
-26z"/>
<path d="M1803 545 c-3 -9 -3 -18 -1 -21 3 -3 8 4 11 16 6 23 -1 27 -10 5z"/>
<path d="M1870 537 c0 -9 4 -18 9 -21 5 -4 8 1 7 9 -3 21 -16 31 -16 12z"/>
<path d="M2550 538 c0 -7 4 -19 9 -26 7 -11 12 -12 29 -1 19 12 19 14 4 26
-22 16 -42 16 -42 1z"/>
<path d="M1706 521 c-3 -5 1 -14 9 -21 12 -10 15 -9 15 4 0 15 2 15 23 2 15
-10 27 -12 37 -6 12 8 11 10 -7 10 -12 0 -25 5 -28 10 -8 12 -42 13 -49 1z"/>
<path d="M1830 521 c0 -5 5 -13 10 -16 6 -3 10 -2 10 4 0 5 -4 13 -10 16 -5 3
-10 2 -10 -4z"/>
<path d="M4314 515 c3 -21 16 -31 16 -12 0 9 -4 18 -9 21 -5 4 -8 -1 -7 -9z"/>
<path d="M4172 490 c-1 -16 2 -30 7 -30 5 0 11 -8 13 -17 2 -14 7 -11 21 10
18 27 18 28 -5 47 -31 26 -33 25 -36 -10z"/>
<path d="M1803 489 c-6 -6 -9 -18 -5 -27 4 -12 1 -14 -13 -9 -15 6 -16 5 -5
-8 9 -11 15 -13 20 -5 5 8 10 6 14 -6 6 -16 8 -16 16 -4 13 21 12 30 -2 28 -8
-2 -12 6 -11 20 3 25 1 26 -14 11z"/>
<path d="M1940 493 c1 -18 28 -44 35 -34 3 6 1 11 -4 11 -6 0 -11 7 -11 15 0
8 -4 15 -10 15 -5 0 -10 -3 -10 -7z"/>
<path d="M1930 450 c0 -5 5 -10 11 -10 5 0 7 5 4 10 -3 6 -8 10 -11 10 -2 0
-4 -4 -4 -10z"/>
<path d="M2060 435 c15 -18 -1 -20 -19 -2 -11 9 -10 7 0 -10 8 -13 19 -23 25
-23 7 0 14 -7 18 -15 3 -8 2 -14 -2 -12 -4 1 -8 -2 -9 -7 -1 -10 -24 -26 -36
-26 -5 0 -5 5 -2 10 4 6 1 18 -7 27 -11 15 -11 16 7 9 17 -6 17 -4 -4 18 -25
26 -61 35 -61 16 0 -6 6 -10 14 -8 8 2 15 -1 15 -7 0 -5 -6 -9 -12 -8 -7 2
-14 -8 -15 -22 -1 -18 6 -29 28 -40 33 -17 80 -20 80 -5 0 6 6 9 13 8 7 -2 11
6 10 20 -2 12 2 22 7 22 6 0 10 5 10 10 0 6 -6 10 -13 10 -8 0 -20 11 -27 25
-7 14 -18 25 -23 25 -5 0 -4 -7 3 -15z"/>
<path d="M4265 420 c10 -11 20 -20 23 -20 3 0 -3 9 -13 20 -10 11 -20 20 -23
20 -3 0 3 -9 13 -20z"/>
<path d="M1840 410 c0 -5 6 -10 13 -10 6 0 21 -3 33 -6 14 -4 21 -1 21 8 0 9
-13 15 -34 16 -18 2 -33 -2 -33 -8z"/>
<path d="M2170 385 c0 -8 2 -15 4 -15 2 0 6 7 10 15 3 8 1 15 -4 15 -6 0 -10
-7 -10 -15z"/>
<path d="M4057 369 c-4 -16 -3 -18 9 -8 16 13 19 29 5 29 -5 0 -11 -9 -14 -21z"/>
<path d="M4095 380 c3 -5 8 -10 11 -10 2 0 4 5 4 10 0 6 -5 10 -11 10 -5 0 -7
-4 -4 -10z"/>
<path d="M4305 380 c3 -5 11 -10 16 -10 6 0 7 5 4 10 -3 6 -11 10 -16 10 -6 0
-7 -4 -4 -10z"/>
<path d="M4611 366 c-10 -12 -8 -13 8 -9 12 3 21 9 21 14 0 14 -16 11 -29 -5z"/>
<path d="M2191 361 c-1 -8 -7 -11 -18 -7 -17 7 -17 6 -1 -10 20 -20 32 -14 25
13 -3 10 -5 12 -6 4z"/>
<path d="M4162 340 c0 -14 2 -19 5 -12 2 6 2 18 0 25 -3 6 -5 1 -5 -13z"/>
<path d="M2240 334 c0 -8 5 -12 10 -9 6 4 8 11 5 16 -9 14 -15 11 -15 -7z"/>
<path d="M4366 342 c-11 -10 -6 -23 7 -20 7 2 12 -1 12 -7 0 -5 -13 -9 -29 -8
-17 1 -24 -2 -17 -7 7 -4 12 -10 12 -14 -4 -27 1 -34 19 -29 11 3 20 9 20 13
0 4 9 17 19 29 11 13 18 28 15 34 -4 12 -49 19 -58 9z"/>
<path d="M4452 330 c0 -14 2 -19 5 -12 2 6 2 18 0 25 -3 6 -5 1 -5 -13z"/>
<path d="M4010 330 c0 -5 5 -10 11 -10 5 0 7 5 4 10 -3 6 -8 10 -11 10 -2 0
-4 -4 -4 -10z"/>
<path d="M4056 331 c-3 -5 1 -11 9 -14 9 -4 12 -1 8 9 -6 16 -10 17 -17 5z"/>
<path d="M4285 320 c-3 -6 1 -7 9 -4 18 7 21 14 7 14 -6 0 -13 -4 -16 -10z"/>
<path d="M2082 308 c2 -6 17 -13 34 -15 28 -4 28 -4 9 11 -24 18 -48 21 -43 4z"/>
<path d="M2320 310 c-13 -8 -12 -10 3 -10 9 0 17 5 17 10 0 12 -1 12 -20 0z"/>
<path d="M4016 285 c4 -8 8 -15 10 -15 2 0 4 7 4 15 0 8 -4 15 -10 15 -5 0 -7
-7 -4 -15z"/>
<path d="M4268 288 c-9 -5 -9 -8 -1 -8 6 0 18 -2 26 -5 7 -3 14 0 14 8 0 15
-19 18 -39 5z"/>
<path d="M2200 277 c8 -8 26 -18 40 -22 22 -7 23 -6 11 9 -8 9 -16 14 -19 12
-2 -3 -14 0 -26 6 -19 9 -19 9 -6 -5z"/>
<path d="M4073 221 c1 -38 3 -40 27 -34 34 8 38 13 11 13 -17 0 -22 4 -17 16
3 8 -1 22 -9 30 -12 13 -14 9 -12 -25z"/>
<path d="M4245 250 c-12 -20 5 -29 37 -19 52 15 57 29 11 29 -23 0 -45 -4 -48
-10z"/>
<path d="M2315 233 c11 -7 26 -13 34 -13 24 0 -4 23 -30 25 -21 2 -21 1 -4
-12z"/>
<path d="M2400 230 c0 -7 -7 -10 -17 -5 -14 5 -15 3 -6 -6 6 -6 29 -15 50 -19
21 -4 44 -9 52 -11 7 -2 16 2 19 10 3 10 0 12 -12 8 -10 -4 -16 -1 -16 7 0 9
-7 12 -20 9 -11 -3 -27 0 -35 7 -12 10 -15 10 -15 0z"/>
<path d="M3080 229 c0 -5 5 -7 10 -4 6 3 10 8 10 11 0 2 -4 4 -10 4 -5 0 -10
-5 -10 -11z"/>
<path d="M2507 195 c-5 -10 0 -15 14 -15 12 0 19 5 17 12 -6 18 -25 20 -31 3z"/>
<path d="M2590 193 c0 -5 4 -14 9 -22 11 -16 101 -25 101 -10 0 6 -9 7 -22 4
-17 -6 -20 -4 -15 9 6 14 3 15 -13 6 -11 -6 -20 -7 -19 -3 3 20 -2 27 -11 13
-6 -10 -10 -11 -10 -2 0 6 -4 12 -10 12 -5 0 -10 -3 -10 -7z"/>
<path d="M2940 174 c0 -20 -22 -42 -38 -36 -6 2 -12 -1 -12 -7 0 -14 27 -14
35 -1 4 6 11 8 16 4 5 -3 7 -10 4 -15 -9 -13 19 -11 32 2 8 8 8 18 1 35 -13
28 -38 40 -38 18z"/>
<path d="M2735 143 c22 -15 32 -16 39 -4 3 5 -8 11 -26 13 -28 5 -29 4 -13 -9z"/>
<path d="M3617 153 c-5 -7 -5 -13 -2 -13 10 0 -20 -27 -36 -33 -8 -2 -1 -3 15
-1 37 5 38 7 34 36 -2 16 -6 19 -11 11z"/>
</g>
</svg>
